<?xml version="1.0" encoding="UTF-8" standalone="no"?><svg xmlns="http://www.w3.org/2000/svg" xmlns:xlink="http://www.w3.org/1999/xlink" clip-rule="evenodd" stroke-miterlimit="4.00" viewBox="0 0 1024 768"><desc>SVG generated by Keynote</desc><defs></defs><g transform="matrix(1.00, 0.00, -0.00, -1.00, 0.0, 768.0)"><path d="M 0.0 768.0 L 1024.0 768.0 L 1024.0 0.0 L 0.0 0.0 Z M 0.0 768.0 " fill="#FEFFFE"></path><path d="M 0.0 0.0 L 934.5 0.0 " fill="none" stroke="#9A9A9A" stroke-width="1.00" transform="matrix(1.00, 0.00, 0.00, -1.00, 45.0, 613.0)"></path><text xml:space="preserve" font-family="HelveticaNeue-Light" font-size="42.0" fill="#000000" transform="matrix(1.00, 0.00, -0.00, -1.00, 49.0, 645.0)">D</text><text xml:space="preserve" font-family="HelveticaNeue-Light" font-size="42.0" fill="#000000" transform="matrix(1.00, 0.00, -0.00, -1.00, 77.8, 645.0)">a</text><text xml:space="preserve" font-family="HelveticaNeue-Light" font-size="42.0" fill="#000000" transform="matrix(1.00, 0.00, -0.00, -1.00, 99.6, 645.0)">s</text><text xml:space="preserve" font-family="HelveticaNeue-Light" font-size="42.0" fill="#000000" transform="matrix(1.00, 0.00, -0.00, -1.00, 119.8, 645.0)">h</text><text xml:space="preserve" font-family="HelveticaNeue-Light" font-size="42.0" fill="#000000" transform="matrix(1.00, 0.00, -0.00, -1.00, 142.3, 645.0)">b</text><text xml:space="preserve" font-family="HelveticaNeue-Light" font-size="42.0" fill="#000000" transform="matrix(1.00, 0.00, -0.00, -1.00, 166.4, 645.0)">o</text><text xml:space="preserve" font-family="HelveticaNeue-Light" font-size="42.0" fill="#000000" transform="matrix(1.00, 0.00, -0.00, -1.00, 189.8, 645.0)">a</text><text xml:space="preserve" font-family="HelveticaNeue-Light" font-size="42.0" fill="#000000" transform="matrix(1.00, 0.00, -0.00, -1.00, 211.6, 645.0)">r</text><text xml:space="preserve" font-family="HelveticaNeue-Light" font-size="42.0" fill="#000000" transform="matrix(1.00, 0.00, -0.00, -1.00, 224.1, 645.0)">d</text><path d="M 22.9 0.0 L 351.0 0.0 C 357.6 0.0 360.9 0.0 364.4 1.1 C 368.3 2.5 371.4 5.6 372.8 9.5 C 373.9 13.0 373.9 16.4 373.9 23.0 L 373.9 28.7 C 373.9 35.3 373.9 38.6 372.8 42.1 C 371.4 46.0 368.3 49.1 364.4 50.5 C 360.9 51.6 357.6 51.6 350.9 51.6 L 22.9 51.6 C 16.4 51.6 13.0 51.6 9.5 50.5 C 5.6 49.1 2.5 46.0 1.1 42.1 C 0.0 38.6 0.0 35.3 0.0 28.6 L 0.0 22.9 C 0.0 16.4 0.0 13.0 1.1 9.5 C 2.5 5.6 5.6 2.5 9.5 1.1 C 13.0 0.0 16.4 0.0 23.0 0.0 Z M 22.9 0.0 " fill="none" stroke="#0432FF" stroke-width="2.00" transform="matrix(1.00, 0.00, 0.00, -1.00, 23.4, 499.5)"></path><g><clipPath id="clip-7"><path d="M 22.3 447.9 L 398.4 447.9 L 398.4 499.5 L 22.3 499.5 Z M 22.3 447.9 "></path></clipPath><g clip-path="url(#clip-7)"><text xml:space="preserve" font-family="HelveticaNeue-Light" font-size="23.0" fill="#9D9D9D" transform="matrix(1.00, 0.00, -0.00, -1.00, 29.0, 465.0)">e</text><text xml:space="preserve" font-family="HelveticaNeue-Light" font-size="23.0" fill="#9D9D9D" transform="matrix(1.00, 0.00, -0.00, -1.00, 40.9, 465.0)">n</text><text xml:space="preserve" font-family="HelveticaNeue-Light" font-size="23.0" fill="#9D9D9D" transform="matrix(1.00, 0.00, -0.00, -1.00, 53.3, 465.0)">t</text><text xml:space="preserve" font-family="HelveticaNeue-Light" font-size="23.0" fill="#9D9D9D" transform="matrix(1.00, 0.00, -0.00, -1.00, 60.1, 465.0)">e</text><text xml:space="preserve" font-family="HelveticaNeue-Light" font-size="23.0" fill="#9D9D9D" transform="matrix(1.00, 0.00, -0.00, -1.00, 72.0, 465.0)">r</text><text xml:space="preserve" font-family="HelveticaNeue-Light" font-size="23.0" fill="#9D9D9D" transform="matrix(1.00, 0.00, -0.00, -1.00, 79.3, 465.0)"> </text><text xml:space="preserve" font-family="HelveticaNeue-Light" font-size="23.0" fill="#9D9D9D" transform="matrix(1.00, 0.00, -0.00, -1.00, 85.7, 465.0)">t</text><text xml:space="preserve" font-family="HelveticaNeue-Light" font-size="23.0" fill="#9D9D9D" transform="matrix(1.00, 0.00, -0.00, -1.00, 92.5, 465.0)">h</text><text xml:space="preserve" font-family="HelveticaNeue-Light" font-size="23.0" fill="#9D9D9D" transform="matrix(1.00, 0.00, -0.00, -1.00, 104.8, 465.0)">e</text><text xml:space="preserve" font-family="HelveticaNeue-Light" font-size="23.0" fill="#9D9D9D" transform="matrix(1.00, 0.00, -0.00, -1.00, 116.8, 465.0)"> </text><text xml:space="preserve" font-family="HelveticaNeue-Light" font-size="23.0" fill="#9D9D9D" transform="matrix(1.00, 0.00, -0.00, -1.00, 123.2, 465.0)">s</text><text xml:space="preserve" font-family="HelveticaNeue-Light" font-size="23.0" fill="#9D9D9D" transform="matrix(1.00, 0.00, -0.00, -1.00, 134.2, 465.0)">t</text><text xml:space="preserve" font-family="HelveticaNeue-Light" font-size="23.0" fill="#9D9D9D" transform="matrix(1.00, 0.00, -0.00, -1.00, 141.0, 465.0)">o</text><text xml:space="preserve" font-family="HelveticaNeue-Light" font-size="23.0" fill="#9D9D9D" transform="matrix(1.00, 0.00, -0.00, -1.00, 153.8, 465.0)">c</text><text xml:space="preserve" font-family="HelveticaNeue-Light" font-size="23.0" fill="#9D9D9D" transform="matrix(1.00, 0.00, -0.00, -1.00, 165.8, 465.0)">k</text><text xml:space="preserve" font-family="HelveticaNeue-Light" font-size="23.0" fill="#9D9D9D" transform="matrix(1.00, 0.00, -0.00, -1.00, 177.3, 465.0)">/</text><text xml:space="preserve" font-family="HelveticaNeue-Light" font-size="23.0" fill="#9D9D9D" transform="matrix(1.00, 0.00, -0.00, -1.00, 184.9, 465.0)">c</text><text xml:space="preserve" font-family="HelveticaNeue-Light" font-size="23.0" fill="#9D9D9D" transform="matrix(1.00, 0.00, -0.00, -1.00, 196.9, 465.0)">o</text><text xml:space="preserve" font-family="HelveticaNeue-Light" font-size="23.0" fill="#9D9D9D" transform="matrix(1.00, 0.00, -0.00, -1.00, 209.6, 465.0)">m</text><text xml:space="preserve" font-family="HelveticaNeue-Light" font-size="23.0" fill="#9D9D9D" transform="matrix(1.00, 0.00, -0.00, -1.00, 228.8, 465.0)">p</text><text xml:space="preserve" font-family="HelveticaNeue-Light" font-size="23.0" fill="#9D9D9D" transform="matrix(1.00, 0.00, -0.00, -1.00, 242.0, 465.0)">a</text><text xml:space="preserve" font-family="HelveticaNeue-Light" font-size="23.0" fill="#9D9D9D" transform="matrix(1.00, 0.00, -0.00, -1.00, 253.9, 465.0)">n</text><text xml:space="preserve" font-family="HelveticaNeue-Light" font-size="23.0" fill="#9D9D9D" transform="matrix(1.00, 0.00, -0.00, -1.00, 266.3, 465.0)">y</text><text xml:space="preserve" font-family="HelveticaNeue-Light" font-size="23.0" fill="#9D9D9D" transform="matrix(1.00, 0.00, -0.00, -1.00, 276.9, 465.0)"> </text><text xml:space="preserve" font-family="HelveticaNeue-Light" font-size="23.0" fill="#9D9D9D" transform="matrix(1.00, 0.00, -0.00, -1.00, 283.3, 465.0)">n</text><text xml:space="preserve" font-family="HelveticaNeue-Light" font-size="23.0" fill="#9D9D9D" transform="matrix(1.00, 0.00, -0.00, -1.00, 295.7, 465.0)">a</text><text xml:space="preserve" font-family="HelveticaNeue-Light" font-size="23.0" fill="#9D9D9D" transform="matrix(1.00, 0.00, -0.00, -1.00, 307.6, 465.0)">m</text><text xml:space="preserve" font-family="HelveticaNeue-Light" font-size="23.0" fill="#9D9D9D" transform="matrix(1.00, 0.00, -0.00, -1.00, 326.8, 465.0)">e</text></g></g><path d="M 22.9 0.0 L 351.0 0.0 C 357.6 0.0 360.9 0.0 364.4 1.1 C 368.3 2.5 371.4 5.6 372.8 9.5 C 373.9 13.0 373.9 16.4 373.9 23.0 L 373.9 28.7 C 373.9 35.3 373.9 38.6 372.8 42.1 C 371.4 46.0 368.3 49.1 364.4 50.5 C 360.9 51.6 357.6 51.6 350.9 51.6 L 22.9 51.6 C 16.4 51.6 13.0 51.6 9.5 50.5 C 5.6 49.1 2.5 46.0 1.1 42.1 C 0.0 38.6 0.0 35.3 0.0 28.6 L 0.0 22.9 C 0.0 16.4 0.0 13.0 1.1 9.5 C 2.5 5.6 5.6 2.5 9.5 1.1 C 13.0 0.0 16.4 0.0 23.0 0.0 Z M 22.9 0.0 " fill="none" stroke="#0432FF" stroke-width="2.00" transform="matrix(1.00, 0.00, 0.00, -1.00, 23.4, 380.3)"></path><g><clipPath id="clip-8"><path d="M 22.3 328.7 L 398.4 328.7 L 398.4 380.3 L 22.3 380.3 Z M 22.3 328.7 "></path></clipPath><g clip-path="url(#clip-8)"><text xml:space="preserve" font-family="HelveticaNeue-Light" font-size="23.0" fill="#9D9D9D" transform="matrix(1.00, 0.00, -0.00, -1.00, 29.0, 346.0)">e</text><text xml:space="preserve" font-family="HelveticaNeue-Light" font-size="23.0" fill="#9D9D9D" transform="matrix(1.00, 0.00, -0.00, -1.00, 40.9, 346.0)">n</text><text xml:space="preserve" font-family="HelveticaNeue-Light" font-size="23.0" fill="#9D9D9D" transform="matrix(1.00, 0.00, -0.00, -1.00, 53.3, 346.0)">t</text><text xml:space="preserve" font-family="HelveticaNeue-Light" font-size="23.0" fill="#9D9D9D" transform="matrix(1.00, 0.00, -0.00, -1.00, 60.1, 346.0)">e</text><text xml:space="preserve" font-family="HelveticaNeue-Light" font-size="23.0" fill="#9D9D9D" transform="matrix(1.00, 0.00, -0.00, -1.00, 72.0, 346.0)">r</text><text xml:space="preserve" font-family="HelveticaNeue-Light" font-size="23.0" fill="#9D9D9D" transform="matrix(1.00, 0.00, -0.00, -1.00, 79.3, 346.0)"> </text><text xml:space="preserve" font-family="HelveticaNeue-Light" font-size="23.0" fill="#9D9D9D" transform="matrix(1.00, 0.00, -0.00, -1.00, 85.7, 346.0)">n</text><text xml:space="preserve" font-family="HelveticaNeue-Light" font-size="23.0" fill="#9D9D9D" transform="matrix(1.00, 0.00, -0.00, -1.00, 98.0, 346.0)">e</text><text xml:space="preserve" font-family="HelveticaNeue-Light" font-size="23.0" fill="#9D9D9D" transform="matrix(1.00, 0.00, -0.00, -1.00, 110.0, 346.0)">w</text><text xml:space="preserve" font-family="HelveticaNeue-Light" font-size="23.0" fill="#9D9D9D" transform="matrix(1.00, 0.00, -0.00, -1.00, 127.0, 346.0)">s</text><text xml:space="preserve" font-family="HelveticaNeue-Light" font-size="23.0" fill="#9D9D9D" transform="matrix(1.00, 0.00, -0.00, -1.00, 138.1, 346.0)"> </text><text xml:space="preserve" font-family="HelveticaNeue-Light" font-size="23.0" fill="#9D9D9D" transform="matrix(1.00, 0.00, -0.00, -1.00, 144.5, 346.0)">c</text><text xml:space="preserve" font-family="HelveticaNeue-Light" font-size="23.0" fill="#9D9D9D" transform="matrix(1.00, 0.00, -0.00, -1.00, 156.4, 346.0)">h</text><text xml:space="preserve" font-family="HelveticaNeue-Light" font-size="23.0" fill="#9D9D9D" transform="matrix(1.00, 0.00, -0.00, -1.00, 168.7, 346.0)">a</text><text xml:space="preserve" font-family="HelveticaNeue-Light" font-size="23.0" fill="#9D9D9D" transform="matrix(1.00, 0.00, -0.00, -1.00, 180.7, 346.0)">n</text><text xml:space="preserve" font-family="HelveticaNeue-Light" font-size="23.0" fill="#9D9D9D" transform="matrix(1.00, 0.00, -0.00, -1.00, 193.0, 346.0)">n</text><text xml:space="preserve" font-family="HelveticaNeue-Light" font-size="23.0" fill="#9D9D9D" transform="matrix(1.00, 0.00, -0.00, -1.00, 205.4, 346.0)">e</text><text xml:space="preserve" font-family="HelveticaNeue-Light" font-size="23.0" fill="#9D9D9D" transform="matrix(1.00, 0.00, -0.00, -1.00, 217.3, 346.0)">l</text><text xml:space="preserve" font-family="HelveticaNeue-Light" font-size="23.0" fill="#9D9D9D" transform="matrix(1.00, 0.00, -0.00, -1.00, 221.6, 346.0)">s</text></g></g><text xml:space="preserve" font-family="HelveticaNeue-Light" font-size="32.0" fill="#000000" transform="matrix(1.00, 0.00, -0.00, -1.00, 513.0, 409.0)">L</text><text xml:space="preserve" font-family="HelveticaNeue-Light" font-size="32.0" fill="#000000" transform="matrix(1.00, 0.00, -0.00, -1.00, 530.2, 409.0)">a</text><text xml:space="preserve" font-family="HelveticaNeue-Light" font-size="32.0" fill="#000000" transform="matrix(1.00, 0.00, -0.00, -1.00, 546.8, 409.0)">s</text><text xml:space="preserve" font-family="HelveticaNeue-Light" font-size="32.0" fill="#000000" transform="matrix(1.00, 0.00, -0.00, -1.00, 562.2, 409.0)">t</text><text xml:space="preserve" font-family="HelveticaNeue-Light" font-size="32.0" fill="#000000" transform="matrix(1.00, 0.00, -0.00, -1.00, 571.7, 409.0)"> </text><text xml:space="preserve" font-family="HelveticaNeue-Light" font-size="32.0" fill="#000000" transform="matrix(1.00, 0.00, -0.00, -1.00, 580.6, 409.0)">5</text><text xml:space="preserve" font-family="HelveticaNeue-Light" font-size="32.0" fill="#000000" transform="matrix(1.00, 0.00, -0.00, -1.00, 598.3, 409.0)"> </text><text xml:space="preserve" font-family="HelveticaNeue-Light" font-size="32.0" fill="#000000" transform="matrix(1.00, 0.00, -0.00, -1.00, 607.2, 409.0)">m</text><text xml:space="preserve" font-family="HelveticaNeue-Light" font-size="32.0" fill="#000000" transform="matrix(1.00, 0.00, -0.00, -1.00, 633.9, 409.0)">i</text><text xml:space="preserve" font-family="HelveticaNeue-Light" font-size="32.0" fill="#000000" transform="matrix(1.00, 0.00, -0.00, -1.00, 639.8, 409.0)">n</text><text xml:space="preserve" font-family="HelveticaNeue-Light" font-size="32.0" fill="#000000" transform="matrix(1.00, 0.00, -0.00, -1.00, 657.0, 409.0)">u</text><text xml:space="preserve" font-family="HelveticaNeue-Light" font-size="32.0" fill="#000000" transform="matrix(1.00, 0.00, -0.00, -1.00, 674.2, 409.0)">t</text><text xml:space="preserve" font-family="HelveticaNeue-Light" font-size="32.0" fill="#000000" transform="matrix(1.00, 0.00, -0.00, -1.00, 683.7, 409.0)">e</text><text xml:space="preserve" font-family="HelveticaNeue-Light" font-size="32.0" fill="#000000" transform="matrix(1.00, 0.00, -0.00, -1.00, 700.3, 409.0)">s</text><text xml:space="preserve" font-family="HelveticaNeue-Light" font-size="33.0" fill="#000000" transform="matrix(1.00, 0.00, -0.00, -1.00, 809.0, 409.0)">Y</text><text xml:space="preserve" font-family="HelveticaNeue-Light" font-size="33.0" fill="#000000" transform="matrix(1.00, 0.00, -0.00, -1.00, 826.1, 409.0)">e</text><text xml:space="preserve" font-family="HelveticaNeue-Light" font-size="33.0" fill="#000000" transform="matrix(1.00, 0.00, -0.00, -1.00, 843.3, 409.0)">a</text><text xml:space="preserve" font-family="HelveticaNeue-Light" font-size="33.0" fill="#000000" transform="matrix(1.00, 0.00, -0.00, -1.00, 860.4, 409.0)">r</text><text xml:space="preserve" font-family="HelveticaNeue-Light" font-size="33.0" fill="#000000" transform="matrix(1.00, 0.00, -0.00, -1.00, 870.8, 409.0)"> </text><text xml:space="preserve" font-family="HelveticaNeue-Light" font-size="33.0" fill="#000000" transform="matrix(1.00, 0.00, -0.00, -1.00, 880.0, 409.0)">2</text><text xml:space="preserve" font-family="HelveticaNeue-Light" font-size="33.0" fill="#000000" transform="matrix(1.00, 0.00, -0.00, -1.00, 898.3, 409.0)">0</text><text xml:space="preserve" font-family="HelveticaNeue-Light" font-size="33.0" fill="#000000" transform="matrix(1.00, 0.00, -0.00, -1.00, 916.6, 409.0)">1</text><text xml:space="preserve" font-family="HelveticaNeue-Light" font-size="33.0" fill="#000000" transform="matrix(1.00, 0.00, -0.00, -1.00, 935.0, 409.0)">7</text><g><clipPath id="clip-9"><path d="M 469.3 191.7 L 983.7 191.7 L 983.7 291.2 L 469.3 291.2 Z M 469.3 191.7 "></path></clipPath><g clip-path="url(#clip-9)"><text xml:space="preserve" font-family="HelveticaNeue-Light" font-size="33.0" fill="#000000" transform="matrix(1.00, 0.00, -0.00, -1.00, 489.0, 249.0)">M</text><text xml:space="preserve" font-family="HelveticaNeue-Light" font-size="33.0" fill="#000000" transform="matrix(1.00, 0.00, -0.00, -1.00, 516.1, 249.0)">a</text><text xml:space="preserve" font-family="HelveticaNeue-Light" font-size="33.0" fill="#000000" transform="matrix(1.00, 0.00, -0.00, -1.00, 533.2, 249.0)">x</text><text xml:space="preserve" font-family="HelveticaNeue-Light" font-size="33.0" fill="#000000" transform="matrix(1.00, 0.00, -0.00, -1.00, 549.1, 249.0)"> </text><text xml:space="preserve" font-family="HelveticaNeue-Light" font-size="33.0" fill="#000000" transform="matrix(1.00, 0.00, -0.00, -1.00, 558.3, 249.0)">r</text><text xml:space="preserve" font-family="HelveticaNeue-Light" font-size="33.0" fill="#000000" transform="matrix(1.00, 0.00, -0.00, -1.00, 568.7, 249.0)">i</text><text xml:space="preserve" font-family="HelveticaNeue-Light" font-size="33.0" fill="#000000" transform="matrix(1.00, 0.00, -0.00, -1.00, 574.8, 249.0)">s</text><text xml:space="preserve" font-family="HelveticaNeue-Light" font-size="33.0" fill="#000000" transform="matrix(1.00, 0.00, -0.00, -1.00, 590.6, 249.0)">i</text><text xml:space="preserve" font-family="HelveticaNeue-Light" font-size="33.0" fill="#000000" transform="matrix(1.00, 0.00, -0.00, -1.00, 596.7, 249.0)">n</text><text xml:space="preserve" font-family="HelveticaNeue-Light" font-size="33.0" fill="#000000" transform="matrix(1.00, 0.00, -0.00, -1.00, 614.5, 249.0)">g</text><text xml:space="preserve" font-family="HelveticaNeue-Light" font-size="33.0" fill="#000000" transform="matrix(1.00, 0.00, -0.00, -1.00, 632.8, 249.0)"> </text><text xml:space="preserve" font-family="HelveticaNeue-Light" font-size="33.0" fill="#000000" transform="matrix(1.00, 0.00, -0.00, -1.00, 642.0, 249.0)">s</text><text xml:space="preserve" font-family="HelveticaNeue-Light" font-size="33.0" fill="#000000" transform="matrix(1.00, 0.00, -0.00, -1.00, 657.9, 249.0)">t</text><text xml:space="preserve" font-family="HelveticaNeue-Light" font-size="33.0" fill="#000000" transform="matrix(1.00, 0.00, -0.00, -1.00, 667.6, 249.0)">o</text><text xml:space="preserve" font-family="HelveticaNeue-Light" font-size="33.0" fill="#000000" transform="matrix(1.00, 0.00, -0.00, -1.00, 686.0, 249.0)">c</text><text xml:space="preserve" font-family="HelveticaNeue-Light" font-size="33.0" fill="#000000" transform="matrix(1.00, 0.00, -0.00, -1.00, 703.1, 249.0)">k</text><text xml:space="preserve" font-family="HelveticaNeue-Light" font-size="33.0" fill="#000000" transform="matrix(1.00, 0.00, -0.00, -1.00, 719.6, 249.0)"> </text><text xml:space="preserve" font-family="HelveticaNeue-Light" font-size="33.0" fill="#000000" transform="matrix(1.00, 0.00, -0.00, -1.00, 728.8, 249.0)"> </text><text xml:space="preserve" font-family="HelveticaNeue-Light" font-size="33.0" fill="#000000" transform="matrix(1.00, 0.00, -0.00, -1.00, 489.0, 209.0)">i</text><text xml:space="preserve" font-family="HelveticaNeue-Light" font-size="33.0" fill="#000000" transform="matrix(1.00, 0.00, -0.00, -1.00, 495.1, 209.0)">n</text><text xml:space="preserve" font-family="HelveticaNeue-Light" font-size="33.0" fill="#000000" transform="matrix(1.00, 0.00, -0.00, -1.00, 512.8, 209.0)"> </text><text xml:space="preserve" font-family="HelveticaNeue-Light" font-size="33.0" fill="#000000" transform="matrix(1.00, 0.00, -0.00, -1.00, 522.0, 209.0)">l</text><text xml:space="preserve" font-family="HelveticaNeue-Light" font-size="33.0" fill="#000000" transform="matrix(1.00, 0.00, -0.00, -1.00, 528.1, 209.0)">a</text><text xml:space="preserve" font-family="HelveticaNeue-Light" font-size="33.0" fill="#000000" transform="matrix(1.00, 0.00, -0.00, -1.00, 545.2, 209.0)">s</text><text xml:space="preserve" font-family="HelveticaNeue-Light" font-size="33.0" fill="#000000" transform="matrix(1.00, 0.00, -0.00, -1.00, 561.1, 209.0)">t</text><text xml:space="preserve" font-family="HelveticaNeue-Light" font-size="33.0" fill="#000000" transform="matrix(1.00, 0.00, -0.00, -1.00, 570.9, 209.0)"> </text><text xml:space="preserve" font-family="HelveticaNeue-Light" font-size="33.0" fill="#000000" transform="matrix(1.00, 0.00, -0.00, -1.00, 580.0, 209.0)">5</text><text xml:space="preserve" font-family="HelveticaNeue-Light" font-size="33.0" fill="#000000" transform="matrix(1.00, 0.00, -0.00, -1.00, 598.4, 209.0)"> </text><text xml:space="preserve" font-family="HelveticaNeue-Light" font-size="33.0" fill="#000000" transform="matrix(1.00, 0.00, -0.00, -1.00, 607.6, 209.0)">m</text><text xml:space="preserve" font-family="HelveticaNeue-Light" font-size="33.0" fill="#000000" transform="matrix(1.00, 0.00, -0.00, -1.00, 635.1, 209.0)">i</text><text xml:space="preserve" font-family="HelveticaNeue-Light" font-size="33.0" fill="#000000" transform="matrix(1.00, 0.00, -0.00, -1.00, 641.2, 209.0)">n</text><text xml:space="preserve" font-family="HelveticaNeue-Light" font-size="33.0" fill="#000000" transform="matrix(1.00, 0.00, -0.00, -1.00, 658.9, 209.0)">u</text><text xml:space="preserve" font-family="HelveticaNeue-Light" font-size="33.0" fill="#000000" transform="matrix(1.00, 0.00, -0.00, -1.00, 676.6, 209.0)">t</text><text xml:space="preserve" font-family="HelveticaNeue-Light" font-size="33.0" fill="#000000" transform="matrix(1.00, 0.00, -0.00, -1.00, 686.4, 209.0)">e</text><text xml:space="preserve" font-family="HelveticaNeue-Light" font-size="33.0" fill="#000000" transform="matrix(1.00, 0.00, -0.00, -1.00, 703.5, 209.0)">s</text></g></g><g><clipPath id="clip-10"><path d="M 700.0 172.4 L 774.0 172.4 L 774.0 323.0 L 700.0 323.0 Z M 700.0 172.4 "></path></clipPath><g clip-path="url(#clip-10)"><text xml:space="preserve" font-family="HelveticaNeue-Light" font-size="84.0" fill="#000000" transform="matrix(1.00, 0.00, -0.00, -1.00, 725.0, 218.0)">:</text></g></g><g><clipPath id="clip-11"><path d="M 746.4 205.0 L 843.6 205.0 L 843.6 277.6 L 746.4 277.6 Z M 746.4 205.0 "></path></clipPath><g clip-path="url(#clip-11)"><text xml:space="preserve" font-family="HelveticaNeue-Light" font-size="40.0" fill="#000000" transform="matrix(1.00, 0.00, -0.00, -1.00, 759.0, 227.0)">b</text><text xml:space="preserve" font-family="HelveticaNeue-Light" font-size="40.0" fill="#000000" transform="matrix(1.00, 0.00, -0.00, -1.00, 782.0, 227.0)">l</text><text xml:space="preserve" font-family="HelveticaNeue-Light" font-size="40.0" fill="#000000" transform="matrix(1.00, 0.00, -0.00, -1.00, 789.4, 227.0)">a</text><text xml:space="preserve" font-family="HelveticaNeue-Light" font-size="40.0" fill="#000000" transform="matrix(1.00, 0.00, -0.00, -1.00, 810.1, 227.0)">h</text></g></g><path d="M 0.0 0.0 L 561.7 0.0 " fill="none" stroke="#ABABAB" stroke-width="1.00" transform="matrix(0.00, 1.00, 1.00, 0.00, 436.7, 32.3)"></path><g><clipPath id="clip-12"><path d="M 606.7 311.1 L 772.5 311.1 L 772.5 370.6 L 606.7 370.6 Z M 606.7 311.1 "></path></clipPath><g clip-path="url(#clip-12)"><text xml:space="preserve" font-family="HelveticaNeue-Light" font-size="33.0" fill="#000000" transform="matrix(1.00, 0.00, -0.00, -1.00, 622.0, 329.0)">w</text><text xml:space="preserve" font-family="HelveticaNeue-Light" font-size="33.0" fill="#000000" transform="matrix(1.00, 0.00, -0.00, -1.00, 646.5, 329.0)">i</text><text xml:space="preserve" font-family="HelveticaNeue-Light" font-size="33.0" fill="#000000" transform="matrix(1.00, 0.00, -0.00, -1.00, 652.6, 329.0)">l</text><text xml:space="preserve" font-family="HelveticaNeue-Light" font-size="33.0" fill="#000000" transform="matrix(1.00, 0.00, -0.00, -1.00, 658.7, 329.0)">l</text><text xml:space="preserve" font-family="HelveticaNeue-Light" font-size="33.0" fill="#000000" transform="matrix(1.00, 0.00, -0.00, -1.00, 664.8, 329.0)"> </text><text xml:space="preserve" font-family="HelveticaNeue-Light" font-size="33.0" fill="#000000" transform="matrix(1.00, 0.00, -0.00, -1.00, 673.9, 329.0)">g</text><text xml:space="preserve" font-family="HelveticaNeue-Light" font-size="33.0" fill="#000000" transform="matrix(1.00, 0.00, -0.00, -1.00, 692.3, 329.0)">o</text><text xml:space="preserve" font-family="HelveticaNeue-Light" font-size="33.0" fill="#000000" transform="matrix(1.00, 0.00, -0.00, -1.00, 710.6, 329.0)"> </text><text xml:space="preserve" font-family="HelveticaNeue-Light" font-size="33.0" fill="#000000" transform="matrix(1.00, 0.00, -0.00, -1.00, 719.8, 329.0)">u</text><text xml:space="preserve" font-family="HelveticaNeue-Light" font-size="33.0" fill="#000000" transform="matrix(1.00, 0.00, -0.00, -1.00, 737.5, 329.0)">p</text></g></g><g><clipPath id="clip-13"><path d="M 759.3 313.5 L 759.3 369.1 L 787.7 369.1 L 787.7 313.5 Z M 759.3 313.5 "></path></clipPath><g clip-path="url(#clip-13)"><path d="M 778.5 332.0 L 786.7 332.0 L 773.5 368.1 L 760.3 332.0 L 768.6 332.0 L 768.6 314.5 L 778.5 314.5 Z M 778.5 332.0 " fill="#007145"></path></g></g><text xml:space="preserve" font-family="HelveticaNeue-Light" font-size="33.0" fill="#000000" transform="matrix(1.00, 0.00, -0.00, -1.00, 492.0, 147.0)">n</text><text xml:space="preserve" font-family="HelveticaNeue-Light" font-size="33.0" fill="#000000" transform="matrix(1.00, 0.00, -0.00, -1.00, 509.7, 147.0)">e</text><text xml:space="preserve" font-family="HelveticaNeue-Light" font-size="33.0" fill="#000000" transform="matrix(1.00, 0.00, -0.00, -1.00, 526.8, 147.0)">w</text><text xml:space="preserve" font-family="HelveticaNeue-Light" font-size="33.0" fill="#000000" transform="matrix(1.00, 0.00, -0.00, -1.00, 551.3, 147.0)">s</text><text xml:space="preserve" font-family="HelveticaNeue-Light" font-size="33.0" fill="#000000" transform="matrix(1.00, 0.00, -0.00, -1.00, 567.2, 147.0)"> </text><text xml:space="preserve" font-family="HelveticaNeue-Light" font-size="33.0" fill="#000000" transform="matrix(1.00, 0.00, -0.00, -1.00, 576.3, 147.0)">s</text><text xml:space="preserve" font-family="HelveticaNeue-Light" font-size="33.0" fill="#000000" transform="matrix(1.00, 0.00, -0.00, -1.00, 592.2, 147.0)">t</text><text xml:space="preserve" font-family="HelveticaNeue-Light" font-size="33.0" fill="#000000" transform="matrix(1.00, 0.00, -0.00, -1.00, 602.0, 147.0)">o</text><text xml:space="preserve" font-family="HelveticaNeue-Light" font-size="33.0" fill="#000000" transform="matrix(1.00, 0.00, -0.00, -1.00, 620.3, 147.0)">r</text><text xml:space="preserve" font-family="HelveticaNeue-Light" font-size="33.0" fill="#000000" transform="matrix(1.00, 0.00, -0.00, -1.00, 630.7, 147.0)">i</text><text xml:space="preserve" font-family="HelveticaNeue-Light" font-size="33.0" fill="#000000" transform="matrix(1.00, 0.00, -0.00, -1.00, 636.8, 147.0)">e</text><text xml:space="preserve" font-family="HelveticaNeue-Light" font-size="33.0" fill="#000000" transform="matrix(1.00, 0.00, -0.00, -1.00, 654.0, 147.0)">s</text><text xml:space="preserve" font-family="HelveticaNeue-Light" font-size="33.0" fill="#000000" transform="matrix(1.00, 0.00, -0.00, -1.00, 669.8, 147.0)">:</text><image xlink:href="../../507336E0-D58B-402D-8869-0F357D7F03AD/assets/FD6B7DB6759E1E79F64CDB8DF3EF7940.png" width="258.00" height="95.00" transform="matrix(1.00, 0.00, -0.00, -1.01, 485.0, 548.0)"></image><image xlink:href="../../507336E0-D58B-402D-8869-0F357D7F03AD/assets/E9305BF00467D44CE13664595BF5D9A0.png" width="212.00" height="57.00" transform="matrix(1.00, 0.00, -0.00, -1.02, 775.0, 510.0)"></image></g></svg>