<?xml version="1.0" encoding="UTF-8" standalone="no"?><svg xmlns="http://www.w3.org/2000/svg" xmlns:xlink="http://www.w3.org/1999/xlink" clip-rule="evenodd" stroke-miterlimit="4.00" viewBox="0 0 1024 768"><desc>SVG generated by Keynote</desc><defs></defs><g transform="matrix(1.00, 0.00, -0.00, -1.00, 0.0, 768.0)"><path d="M 0.0 768.0 L 1024.0 768.0 L 1024.0 0.0 L 0.0 0.0 Z M 0.0 768.0 " fill="#FEFFFE"></path><path d="M 0.0 0.0 L 934.5 0.0 " fill="none" stroke="#9A9A9A" stroke-width="1.00" transform="matrix(1.00, 0.00, 0.00, -1.00, 45.0, 613.0)"></path><text xml:space="preserve" font-family="HelveticaNeue-Light" font-size="42.0" fill="#000000" transform="matrix(1.00, 0.00, -0.00, -1.00, 49.0, 645.0)">P</text><text xml:space="preserve" font-family="HelveticaNeue-Light" font-size="42.0" fill="#000000" transform="matrix(1.00, 0.00, -0.00, -1.00, 75.5, 645.0)">i</text><text xml:space="preserve" font-family="HelveticaNeue-Light" font-size="42.0" fill="#000000" transform="matrix(1.00, 0.00, -0.00, -1.00, 83.2, 645.0)">p</text><text xml:space="preserve" font-family="HelveticaNeue-Light" font-size="42.0" fill="#000000" transform="matrix(1.00, 0.00, -0.00, -1.00, 107.3, 645.0)">e</text><text xml:space="preserve" font-family="HelveticaNeue-Light" font-size="42.0" fill="#000000" transform="matrix(1.00, 0.00, -0.00, -1.00, 129.1, 645.0)">l</text><text xml:space="preserve" font-family="HelveticaNeue-Light" font-size="42.0" fill="#000000" transform="matrix(1.00, 0.00, -0.00, -1.00, 136.9, 645.0)">i</text><text xml:space="preserve" font-family="HelveticaNeue-Light" font-size="42.0" fill="#000000" transform="matrix(1.00, 0.00, -0.00, -1.00, 144.7, 645.0)">n</text><text xml:space="preserve" font-family="HelveticaNeue-Light" font-size="42.0" fill="#000000" transform="matrix(1.00, 0.00, -0.00, -1.00, 167.2, 645.0)">e</text><g><clipPath id="clip-26"><path d="M 422.7 378.7 L 521.3 378.7 L 521.3 477.4 L 422.7 477.4 Z M 422.7 378.7 "></path></clipPath><g clip-path="url(#clip-26)"><image xlink:href="../../00940506-78DE-4304-A917-0B23D20F409F/assets/F502517EC150A26FAC2311AED6F742A9.png" width="99.00" height="99.00" transform="matrix(0.99, 0.00, -0.00, -0.99, 423.0, 477.0)"></image></g></g><g><clipPath id="clip-27"><path d="M 417.4 380.3 L 539.7 380.3 L 539.7 481.2 L 417.4 481.2 Z M 417.4 380.3 "></path></clipPath><g clip-path="url(#clip-27)"><path d="M 22.4 0.0 L 96.8 0.0 C 103.3 0.0 106.5 0.0 110.0 1.1 C 113.8 2.5 116.8 5.5 118.2 9.3 C 119.3 12.7 119.3 16.0 119.3 22.5 L 119.3 75.4 C 119.3 81.9 119.3 85.2 118.2 88.6 C 116.8 92.4 113.8 95.4 110.0 96.8 C 106.5 97.9 103.3 97.9 96.7 97.9 L 22.4 97.9 C 16.0 97.9 12.7 97.9 9.3 96.8 C 5.5 95.4 2.5 92.4 1.1 88.6 C 0.0 85.2 0.0 81.9 0.0 75.4 L 0.0 22.4 C 0.0 16.0 0.0 12.7 1.1 9.3 C 2.5 5.5 5.5 2.5 9.3 1.1 C 12.7 0.0 16.0 0.0 22.5 0.0 Z M 22.4 0.0 " fill="none" stroke="#9A9A9A" stroke-width="1.10" transform="matrix(1.00, 0.00, 0.00, -1.00, 418.9, 479.7)"></path></g></g><g><clipPath id="clip-28"><path d="M 136.7 311.8 L 259.8 311.8 L 259.8 373.3 L 136.7 373.3 Z M 136.7 311.8 "></path></clipPath><g clip-path="url(#clip-28)"><image xlink:href="../../00940506-78DE-4304-A917-0B23D20F409F/assets/CAF4CCDA9FB461008F5FF9A9B810A052.png" width="124.00" height="62.00" transform="matrix(0.99, 0.00, -0.00, -0.98, 137.0, 373.0)"></image></g></g><g><clipPath id="clip-29"><path d="M 128.0 299.5 L 268.6 299.5 L 268.6 385.7 L 128.0 385.7 Z M 128.0 299.5 "></path></clipPath><g clip-path="url(#clip-29)"><path d="M 19.1 0.0 L 118.5 0.0 C 123.9 0.0 126.7 0.0 129.7 0.9 C 132.9 2.1 135.4 4.7 136.6 7.9 C 137.5 10.8 137.5 13.6 137.5 19.2 L 137.5 64.1 C 137.5 69.6 137.5 72.4 136.6 75.3 C 135.4 78.5 132.9 81.1 129.7 82.3 C 126.7 83.2 123.9 83.2 118.4 83.2 L 19.1 83.2 C 13.6 83.2 10.8 83.2 7.9 82.3 C 4.7 81.1 2.1 78.5 0.9 75.3 C 0.0 72.4 0.0 69.6 0.0 64.0 L 0.0 19.1 C 0.0 13.6 0.0 10.8 0.9 7.9 C 2.1 4.7 4.7 2.1 7.9 0.9 C 10.8 0.0 13.6 0.0 19.2 0.0 Z M 19.1 0.0 " fill="none" stroke="#9A9A9A" stroke-width="1.10" transform="matrix(1.00, 0.00, 0.00, -1.00, 129.5, 384.2)"></path></g></g><g><clipPath id="clip-30"><path d="M 644.6 491.0 L 743.3 491.0 L 743.3 543.5 L 644.6 543.5 Z M 644.6 491.0 "></path></clipPath><g clip-path="url(#clip-30)"><image xlink:href="../../00940506-78DE-4304-A917-0B23D20F409F/assets/E16F4E4D5A95E3C7180D43F2351EE307.png" width="99.00" height="52.00" transform="matrix(0.99, 0.00, -0.00, -1.02, 645.0, 544.0)"></image></g></g><g><clipPath id="clip-31"><path d="M 632.8 478.9 L 755.1 478.9 L 755.1 549.9 L 632.8 549.9 Z M 632.8 478.9 "></path></clipPath><g clip-path="url(#clip-31)"><path d="M 22.4 0.0 L 96.8 0.0 C 103.3 0.0 106.5 0.0 110.0 1.1 C 113.8 2.5 116.8 5.5 118.2 9.3 C 119.3 12.7 119.3 16.0 119.3 22.5 L 119.3 45.6 C 119.3 52.0 119.3 55.3 118.2 58.8 C 116.8 62.6 113.8 65.6 110.0 66.9 C 106.5 68.0 103.3 68.0 96.7 68.0 L 22.4 68.0 C 16.0 68.0 12.7 68.0 9.3 66.9 C 5.5 65.6 2.5 62.6 1.1 58.8 C 0.0 55.3 0.0 52.0 0.0 45.5 L 0.0 22.4 C 0.0 16.0 0.0 12.7 1.1 9.3 C 2.5 5.5 5.5 2.5 9.3 1.1 C 12.7 0.0 16.0 0.0 22.5 0.0 Z M 22.4 0.0 " fill="none" stroke="#9A9A9A" stroke-width="1.10" transform="matrix(1.00, 0.00, 0.00, -1.00, 634.3, 548.4)"></path></g></g><g><clipPath id="clip-32"><path d="M 636.0 431.0 L 740.0 431.0 L 740.0 347.0 L 636.0 347.0 Z M 635.8 431.4 "></path></clipPath><g clip-path="url(#clip-32)"><g><clipPath id="clip-33"><path d="M 635.8 346.6 L 740.4 346.6 L 740.4 431.4 L 635.8 431.4 Z M 635.8 346.6 "></path></clipPath><g clip-path="url(#clip-33)"><image xlink:href="../../00940506-78DE-4304-A917-0B23D20F409F/assets/BAF24DBF448181E044B7FC4C7196CBCD.png" width="154.00" height="139.00" transform="matrix(1.00, 0.00, -0.00, -1.00, 614.0, 456.0)"></image></g></g></g></g><g><clipPath id="clip-34"><path d="M 634.7 330.6 L 764.0 330.6 L 764.0 437.4 L 634.7 437.4 Z M 634.7 330.6 "></path></clipPath><g clip-path="url(#clip-34)"><path d="M 23.8 0.0 L 102.6 0.0 C 109.4 0.0 112.9 0.0 116.5 1.2 C 120.6 2.6 123.7 5.8 125.2 9.8 C 126.4 13.5 126.4 17.0 126.4 23.9 L 126.4 79.9 C 126.4 86.8 126.4 90.2 125.2 93.9 C 123.7 97.9 120.6 101.1 116.5 102.5 C 112.9 103.7 109.4 103.7 102.5 103.7 L 23.8 103.7 C 17.0 103.7 13.5 103.7 9.8 102.5 C 5.8 101.1 2.6 97.9 1.2 93.9 C 0.0 90.2 0.0 86.8 0.0 79.8 L 0.0 23.8 C 0.0 17.0 0.0 13.5 1.2 9.8 C 2.6 5.8 5.8 2.6 9.8 1.2 C 13.5 0.0 17.0 0.0 23.9 0.0 Z M 23.8 0.0 " fill="none" stroke="#9A9A9A" stroke-width="1.10" transform="matrix(1.00, 0.00, 0.00, -1.00, 636.2, 435.9)"></path></g></g><g><clipPath id="clip-35"><path d="M 416.0 304.0 L 636.0 304.0 L 636.0 251.0 L 416.0 251.0 Z M 416.3 304.2 "></path></clipPath><g clip-path="url(#clip-35)"><g><clipPath id="clip-36"><path d="M 416.3 250.6 L 635.7 250.6 L 635.7 304.2 L 416.3 304.2 Z M 416.3 250.6 "></path></clipPath><g clip-path="url(#clip-36)"><image xlink:href="../../00940506-78DE-4304-A917-0B23D20F409F/assets/93A76A298BEF86E3934983BCB4818AE0.jpeg" width="220.00" height="125.00" transform="matrix(1.00, 0.00, -0.00, -1.00, 416.0, 340.0)"></image></g></g></g></g><g><clipPath id="clip-37"><path d="M 411.2 239.2 L 647.6 239.2 L 647.6 315.6 L 411.2 315.6 Z M 411.2 239.2 "></path></clipPath><g clip-path="url(#clip-37)"><path d="M 26.5 0.0 L 206.9 0.0 C 214.5 0.0 218.3 0.0 222.4 1.3 C 226.9 2.9 230.4 6.5 232.1 10.9 C 233.4 15.0 233.4 18.9 233.4 26.6 L 233.4 46.9 C 233.4 54.5 233.4 58.4 232.1 62.5 C 230.4 67.0 226.9 70.5 222.4 72.1 C 218.3 73.4 214.5 73.4 206.8 73.4 L 26.5 73.4 C 18.9 73.4 15.0 73.4 10.9 72.1 C 6.5 70.5 2.9 67.0 1.3 62.5 C 0.0 58.4 0.0 54.5 0.0 46.8 L 0.0 26.5 C 0.0 18.9 0.0 15.0 1.3 10.9 C 2.9 6.5 6.5 2.9 10.9 1.3 C 15.0 0.0 18.9 0.0 26.6 0.0 Z M 26.5 0.0 " fill="none" stroke="#9A9A9A" stroke-width="1.10" transform="matrix(1.00, 0.00, 0.00, -1.00, 412.7, 314.1)"></path></g></g><path d="M 0.0 0.0 L 126.1 0.0 L 130.1 0.0 " fill="none" stroke="#ABABAB" stroke-width="8.00" transform="matrix(0.92, 0.39, 0.39, -0.92, 271.3, 342.8)"></path><path d="M 393.5 377.4 L 416.2 403.9 L 381.4 406.2 Z M 393.5 377.4 " fill="#ABABAB"></path><path d="M 0.0 0.0 L 118.6 0.0 L 122.6 0.0 " fill="none" stroke="#ABABAB" stroke-width="8.00" transform="matrix(0.91, -0.42, -0.42, -0.91, 272.8, 345.7)"></path><path d="M 373.8 281.6 L 408.7 282.7 L 386.9 309.9 Z M 373.8 281.6 " fill="#ABABAB"></path><text xml:space="preserve" font-family="HelveticaNeue-Light" font-size="36.0" fill="#000000" transform="matrix(1.00, 0.00, -0.00, -1.00, 838.0, 370.0)">P</text><text xml:space="preserve" font-family="HelveticaNeue-Light" font-size="36.0" fill="#000000" transform="matrix(1.00, 0.00, -0.00, -1.00, 860.7, 370.0)">r</text><text xml:space="preserve" font-family="HelveticaNeue-Light" font-size="36.0" fill="#000000" transform="matrix(1.00, 0.00, -0.00, -1.00, 871.4, 370.0)">e</text><text xml:space="preserve" font-family="HelveticaNeue-Light" font-size="36.0" fill="#000000" transform="matrix(1.00, 0.00, -0.00, -1.00, 890.1, 370.0)">d</text><text xml:space="preserve" font-family="HelveticaNeue-Light" font-size="36.0" fill="#000000" transform="matrix(1.00, 0.00, -0.00, -1.00, 910.7, 370.0)">i</text><text xml:space="preserve" font-family="HelveticaNeue-Light" font-size="36.0" fill="#000000" transform="matrix(1.00, 0.00, -0.00, -1.00, 917.4, 370.0)">c</text><text xml:space="preserve" font-family="HelveticaNeue-Light" font-size="36.0" fill="#000000" transform="matrix(1.00, 0.00, -0.00, -1.00, 936.1, 370.0)">t</text><text xml:space="preserve" font-family="HelveticaNeue-Light" font-size="36.0" fill="#000000" transform="matrix(1.00, 0.00, -0.00, -1.00, 946.7, 370.0)">i</text><text xml:space="preserve" font-family="HelveticaNeue-Light" font-size="36.0" fill="#000000" transform="matrix(1.00, 0.00, -0.00, -1.00, 953.4, 370.0)">o</text><text xml:space="preserve" font-family="HelveticaNeue-Light" font-size="36.0" fill="#000000" transform="matrix(1.00, 0.00, -0.00, -1.00, 973.4, 370.0)">n</text><path d="M 0.0 0.0 L 44.2 0.0 L 48.2 0.0 " fill="none" stroke="#ABABAB" stroke-width="8.00" transform="matrix(1.00, 0.00, 0.00, -1.00, 752.5, 515.8)"></path><path d="M 796.7 500.2 L 827.9 515.8 L 796.7 531.4 Z M 796.7 500.2 " fill="#ABABAB"></path><text xml:space="preserve" font-family="HelveticaNeue-Light" font-size="36.0" fill="#000000" transform="matrix(1.00, 0.00, -0.00, -1.00, 842.0, 504.0)">A</text><text xml:space="preserve" font-family="HelveticaNeue-Light" font-size="36.0" fill="#000000" transform="matrix(1.00, 0.00, -0.00, -1.00, 864.7, 504.0)">n</text><text xml:space="preserve" font-family="HelveticaNeue-Light" font-size="36.0" fill="#000000" transform="matrix(1.00, 0.00, -0.00, -1.00, 884.0, 504.0)">a</text><text xml:space="preserve" font-family="HelveticaNeue-Light" font-size="36.0" fill="#000000" transform="matrix(1.00, 0.00, -0.00, -1.00, 902.7, 504.0)">l</text><text xml:space="preserve" font-family="HelveticaNeue-Light" font-size="36.0" fill="#000000" transform="matrix(1.00, 0.00, -0.00, -1.00, 909.4, 504.0)">y</text><text xml:space="preserve" font-family="HelveticaNeue-Light" font-size="36.0" fill="#000000" transform="matrix(1.00, 0.00, -0.00, -1.00, 926.0, 504.0)">t</text><text xml:space="preserve" font-family="HelveticaNeue-Light" font-size="36.0" fill="#000000" transform="matrix(1.00, 0.00, -0.00, -1.00, 936.7, 504.0)">i</text><text xml:space="preserve" font-family="HelveticaNeue-Light" font-size="36.0" fill="#000000" transform="matrix(1.00, 0.00, -0.00, -1.00, 943.3, 504.0)">c</text><text xml:space="preserve" font-family="HelveticaNeue-Light" font-size="36.0" fill="#000000" transform="matrix(1.00, 0.00, -0.00, -1.00, 962.0, 504.0)">s</text><path d="M 0.0 0.0 L 68.5 0.0 L 72.5 0.0 " fill="none" stroke="#ABABAB" stroke-width="8.00" transform="matrix(0.93, 0.37, 0.37, -0.93, 541.6, 455.0)"></path><path d="M 610.9 465.9 L 634.1 491.9 L 599.4 494.8 Z M 610.9 465.9 " fill="#ABABAB"></path><path d="M 0.0 0.0 L 69.8 0.0 L 73.8 0.0 " fill="none" stroke="#ABABAB" stroke-width="8.00" transform="matrix(0.89, -0.46, -0.46, -0.89, 543.6, 454.9)"></path><path d="M 598.5 409.0 L 633.4 408.5 L 612.8 436.7 Z M 598.5 409.0 " fill="#ABABAB"></path><path d="M 0.0 0.0 L 31.2 0.0 L 35.2 0.0 " fill="none" stroke="#ABABAB" stroke-width="8.00" transform="matrix(1.00, 0.00, 0.00, -1.00, 765.5, 384.0)"></path><path d="M 796.7 368.4 L 827.9 384.0 L 796.7 399.6 Z M 796.7 368.4 " fill="#ABABAB"></path><path d="M 0.0 0.0 L 146.5 0.0 L 150.5 0.0 " fill="none" stroke="#ABABAB" stroke-width="8.00" transform="matrix(1.00, 0.00, 0.00, -1.00, 650.2, 277.4)"></path><path d="M 796.7 261.8 L 827.9 277.4 L 796.7 293.0 Z M 796.7 261.8 " fill="#ABABAB"></path><text xml:space="preserve" font-family="HelveticaNeue-Light" font-size="36.0" fill="#000000" transform="matrix(1.00, 0.00, -0.00, -1.00, 847.0, 264.0)">A</text><text xml:space="preserve" font-family="HelveticaNeue-Light" font-size="36.0" fill="#000000" transform="matrix(1.00, 0.00, -0.00, -1.00, 869.7, 264.0)">n</text><text xml:space="preserve" font-family="HelveticaNeue-Light" font-size="36.0" fill="#000000" transform="matrix(1.00, 0.00, -0.00, -1.00, 889.0, 264.0)">a</text><text xml:space="preserve" font-family="HelveticaNeue-Light" font-size="36.0" fill="#000000" transform="matrix(1.00, 0.00, -0.00, -1.00, 907.7, 264.0)">l</text><text xml:space="preserve" font-family="HelveticaNeue-Light" font-size="36.0" fill="#000000" transform="matrix(1.00, 0.00, -0.00, -1.00, 914.4, 264.0)">y</text><text xml:space="preserve" font-family="HelveticaNeue-Light" font-size="36.0" fill="#000000" transform="matrix(1.00, 0.00, -0.00, -1.00, 931.0, 264.0)">t</text><text xml:space="preserve" font-family="HelveticaNeue-Light" font-size="36.0" fill="#000000" transform="matrix(1.00, 0.00, -0.00, -1.00, 941.7, 264.0)">i</text><text xml:space="preserve" font-family="HelveticaNeue-Light" font-size="36.0" fill="#000000" transform="matrix(1.00, 0.00, -0.00, -1.00, 948.3, 264.0)">c</text><text xml:space="preserve" font-family="HelveticaNeue-Light" font-size="36.0" fill="#000000" transform="matrix(1.00, 0.00, -0.00, -1.00, 967.0, 264.0)">s</text><text xml:space="preserve" font-family="HelveticaNeue-Light" font-size="36.0" fill="#000000" transform="matrix(1.00, 0.00, -0.00, -1.00, 17.0, 329.0)">A</text><text xml:space="preserve" font-family="HelveticaNeue-Light" font-size="36.0" fill="#000000" transform="matrix(1.00, 0.00, -0.00, -1.00, 39.7, 329.0)">P</text><text xml:space="preserve" font-family="HelveticaNeue-Light" font-size="36.0" fill="#000000" transform="matrix(1.00, 0.00, -0.00, -1.00, 62.4, 329.0)">I</text><path d="M 0.0 0.0 L 22.7 0.0 L 26.7 0.0 " fill="none" stroke="#ABABAB" stroke-width="8.00" transform="matrix(1.00, 0.00, 0.00, -1.00, 76.4, 342.6)"></path><path d="M 99.1 327.0 L 130.3 342.6 L 99.1 358.2 Z M 99.1 327.0 " fill="#ABABAB"></path><path d="M 0.0 0.0 L 360.9 0.0 " fill="none" stroke="#ABABAB" stroke-width="1.00" transform="matrix(0.00, 1.00, 1.00, 0.00, 830.8, 235.7)"></path><path d="M 0.0 0.0 L 68.5 0.0 L 72.5 0.0 " fill="none" stroke="#ABABAB" stroke-width="8.00" transform="matrix(0.93, 0.37, 0.37, -0.93, 540.8, 317.5)"></path><path d="M 610.2 328.4 L 633.4 354.4 L 598.6 357.3 Z M 610.2 328.4 " fill="#ABABAB"></path></g></svg>