<?xml version="1.0" encoding="UTF-8" standalone="no"?><svg xmlns="http://www.w3.org/2000/svg" xmlns:xlink="http://www.w3.org/1999/xlink" clip-rule="evenodd" stroke-miterlimit="4.00" viewBox="0 0 1024 768"><desc>SVG generated by Keynote</desc><defs></defs><g transform="matrix(1.00, 0.00, -0.00, -1.00, 0.0, 768.0)"><path d="M 0.0 768.0 L 1024.0 768.0 L 1024.0 0.0 L 0.0 0.0 Z M 0.0 768.0 " fill="#FEFFFE"></path><path d="M 0.0 0.0 L 934.5 0.0 " fill="none" stroke="#9A9A9A" stroke-width="1.00" transform="matrix(1.00, 0.00, 0.00, -1.00, 45.0, 613.0)"></path><text xml:space="preserve" font-family="HelveticaNeue-Light" font-size="42.0" fill="#000000" transform="matrix(1.00, 0.00, -0.00, -1.00, 49.0, 645.0)">T</text><text xml:space="preserve" font-family="HelveticaNeue-Light" font-size="42.0" fill="#000000" transform="matrix(1.00, 0.00, -0.00, -1.00, 67.7, 645.0)">e</text><text xml:space="preserve" font-family="HelveticaNeue-Light" font-size="42.0" fill="#000000" transform="matrix(1.00, 0.00, -0.00, -1.00, 89.5, 645.0)">c</text><text xml:space="preserve" font-family="HelveticaNeue-Light" font-size="42.0" fill="#000000" transform="matrix(1.00, 0.00, -0.00, -1.00, 111.3, 645.0)">h</text><text xml:space="preserve" font-family="HelveticaNeue-Light" font-size="42.0" fill="#000000" transform="matrix(1.00, 0.00, -0.00, -1.00, 133.8, 645.0)">n</text><text xml:space="preserve" font-family="HelveticaNeue-Light" font-size="42.0" fill="#000000" transform="matrix(1.00, 0.00, -0.00, -1.00, 156.4, 645.0)">o</text><text xml:space="preserve" font-family="HelveticaNeue-Light" font-size="42.0" fill="#000000" transform="matrix(1.00, 0.00, -0.00, -1.00, 179.7, 645.0)">l</text><text xml:space="preserve" font-family="HelveticaNeue-Light" font-size="42.0" fill="#000000" transform="matrix(1.00, 0.00, -0.00, -1.00, 187.5, 645.0)">o</text><text xml:space="preserve" font-family="HelveticaNeue-Light" font-size="42.0" fill="#000000" transform="matrix(1.00, 0.00, -0.00, -1.00, 210.9, 645.0)">g</text><text xml:space="preserve" font-family="HelveticaNeue-Light" font-size="42.0" fill="#000000" transform="matrix(1.00, 0.00, -0.00, -1.00, 234.2, 645.0)">i</text><text xml:space="preserve" font-family="HelveticaNeue-Light" font-size="42.0" fill="#000000" transform="matrix(1.00, 0.00, -0.00, -1.00, 242.0, 645.0)">e</text><text xml:space="preserve" font-family="HelveticaNeue-Light" font-size="42.0" fill="#000000" transform="matrix(1.00, 0.00, -0.00, -1.00, 263.8, 645.0)">s</text><text xml:space="preserve" font-family="HelveticaNeue" font-size="15.4" fill="#0432FF" transform="matrix(1.00, 0.00, -0.00, -1.00, 49.0, 570.3)">•</text><text xml:space="preserve" font-family="HelveticaNeue-Light" font-size="20.5" fill="#0432FF" transform="matrix(1.00, 0.00, -0.00, -1.00, 70.0, 568.0)">D</text><text xml:space="preserve" font-family="HelveticaNeue-Light" font-size="20.5" fill="#0432FF" transform="matrix(1.00, 0.00, -0.00, -1.00, 84.1, 568.0)">a</text><text xml:space="preserve" font-family="HelveticaNeue-Light" font-size="20.5" fill="#0432FF" transform="matrix(1.00, 0.00, -0.00, -1.00, 94.7, 568.0)">t</text><text xml:space="preserve" font-family="HelveticaNeue-Light" font-size="20.5" fill="#0432FF" transform="matrix(1.00, 0.00, -0.00, -1.00, 100.8, 568.0)">a</text><text xml:space="preserve" font-family="HelveticaNeue-Light" font-size="20.5" fill="#0432FF" transform="matrix(1.00, 0.00, -0.00, -1.00, 111.4, 568.0)"> </text><text xml:space="preserve" font-family="HelveticaNeue-Light" font-size="20.5" fill="#0432FF" transform="matrix(1.00, 0.00, -0.00, -1.00, 117.1, 568.0)">I</text><text xml:space="preserve" font-family="HelveticaNeue-Light" font-size="20.5" fill="#0432FF" transform="matrix(1.00, 0.00, -0.00, -1.00, 121.7, 568.0)">n</text><text xml:space="preserve" font-family="HelveticaNeue-Light" font-size="20.5" fill="#0432FF" transform="matrix(1.00, 0.00, -0.00, -1.00, 132.7, 568.0)">g</text><text xml:space="preserve" font-family="HelveticaNeue-Light" font-size="20.5" fill="#0432FF" transform="matrix(1.00, 0.00, -0.00, -1.00, 144.1, 568.0)">e</text><text xml:space="preserve" font-family="HelveticaNeue-Light" font-size="20.5" fill="#0432FF" transform="matrix(1.00, 0.00, -0.00, -1.00, 154.8, 568.0)">s</text><text xml:space="preserve" font-family="HelveticaNeue-Light" font-size="20.5" fill="#0432FF" transform="matrix(1.00, 0.00, -0.00, -1.00, 164.6, 568.0)">t</text><text xml:space="preserve" font-family="HelveticaNeue-Light" font-size="20.5" fill="#0432FF" transform="matrix(1.00, 0.00, -0.00, -1.00, 170.7, 568.0)">i</text><text xml:space="preserve" font-family="HelveticaNeue-Light" font-size="20.5" fill="#0432FF" transform="matrix(1.00, 0.00, -0.00, -1.00, 174.5, 568.0)">o</text><text xml:space="preserve" font-family="HelveticaNeue-Light" font-size="20.5" fill="#0432FF" transform="matrix(1.00, 0.00, -0.00, -1.00, 185.9, 568.0)">n</text><text xml:space="preserve" font-family="HelveticaNeue-Light" font-size="20.5" fill="#0432FF" transform="matrix(1.00, 0.00, -0.00, -1.00, 196.9, 568.0)">:</text><text xml:space="preserve" font-family="HelveticaNeue-Light" font-size="20.5" fill="#0432FF" transform="matrix(1.00, 0.00, -0.00, -1.00, 202.6, 568.0)"> </text><text xml:space="preserve" font-family="HelveticaNeue-Light" font-size="20.5" fill="#0432FF" transform="matrix(1.00, 0.00, -0.00, -1.00, 208.3, 568.0)"> </text><text xml:space="preserve" font-family="HelveticaNeue" font-size="15.4" fill="#747373" transform="matrix(1.00, 0.00, -0.00, -1.00, 193.0, 533.6)">•</text><text xml:space="preserve" font-family="HelveticaNeue-Light" font-size="20.5" fill="#747373" transform="matrix(1.00, 0.00, -0.00, -1.00, 214.0, 531.0)">K</text><text xml:space="preserve" font-family="HelveticaNeue-Light" font-size="20.5" fill="#747373" transform="matrix(1.00, 0.00, -0.00, -1.00, 227.3, 531.0)">a</text><text xml:space="preserve" font-family="HelveticaNeue-Light" font-size="20.5" fill="#747373" transform="matrix(1.00, 0.00, -0.00, -1.00, 237.9, 531.0)">f</text><text xml:space="preserve" font-family="HelveticaNeue-Light" font-size="20.5" fill="#747373" transform="matrix(1.00, 0.00, -0.00, -1.00, 243.3, 531.0)">k</text><text xml:space="preserve" font-family="HelveticaNeue-Light" font-size="20.5" fill="#747373" transform="matrix(1.00, 0.00, -0.00, -1.00, 253.5, 531.0)">a</text><text xml:space="preserve" font-family="HelveticaNeue-Light" font-size="20.5" fill="#747373" transform="matrix(1.00, 0.00, -0.00, -1.00, 264.2, 531.0)"> </text><text xml:space="preserve" font-family="HelveticaNeue" font-size="15.4" fill="#0432FF" transform="matrix(1.00, 0.00, -0.00, -1.00, 49.0, 506.6)">•</text><text xml:space="preserve" font-family="HelveticaNeue-Light" font-size="20.5" fill="#0432FF" transform="matrix(1.00, 0.00, -0.00, -1.00, 70.0, 504.0)">D</text><text xml:space="preserve" font-family="HelveticaNeue-Light" font-size="20.5" fill="#0432FF" transform="matrix(1.00, 0.00, -0.00, -1.00, 84.1, 504.0)">a</text><text xml:space="preserve" font-family="HelveticaNeue-Light" font-size="20.5" fill="#0432FF" transform="matrix(1.00, 0.00, -0.00, -1.00, 94.7, 504.0)">t</text><text xml:space="preserve" font-family="HelveticaNeue-Light" font-size="20.5" fill="#0432FF" transform="matrix(1.00, 0.00, -0.00, -1.00, 100.8, 504.0)">a</text><text xml:space="preserve" font-family="HelveticaNeue-Light" font-size="20.5" fill="#0432FF" transform="matrix(1.00, 0.00, -0.00, -1.00, 111.4, 504.0)"> </text><text xml:space="preserve" font-family="HelveticaNeue-Light" font-size="20.5" fill="#0432FF" transform="matrix(1.00, 0.00, -0.00, -1.00, 117.1, 504.0)">S</text><text xml:space="preserve" font-family="HelveticaNeue-Light" font-size="20.5" fill="#0432FF" transform="matrix(1.00, 0.00, -0.00, -1.00, 130.1, 504.0)">t</text><text xml:space="preserve" font-family="HelveticaNeue-Light" font-size="20.5" fill="#0432FF" transform="matrix(1.00, 0.00, -0.00, -1.00, 136.1, 504.0)">o</text><text xml:space="preserve" font-family="HelveticaNeue-Light" font-size="20.5" fill="#0432FF" transform="matrix(1.00, 0.00, -0.00, -1.00, 147.5, 504.0)">r</text><text xml:space="preserve" font-family="HelveticaNeue-Light" font-size="20.5" fill="#0432FF" transform="matrix(1.00, 0.00, -0.00, -1.00, 153.6, 504.0)">e</text><text xml:space="preserve" font-family="HelveticaNeue-Light" font-size="20.5" fill="#0432FF" transform="matrix(1.00, 0.00, -0.00, -1.00, 164.3, 504.0)">:</text><text xml:space="preserve" font-family="HelveticaNeue-Light" font-size="20.5" fill="#0432FF" transform="matrix(1.00, 0.00, -0.00, -1.00, 170.0, 504.0)"> </text><text xml:space="preserve" font-family="HelveticaNeue-Light" font-size="20.5" fill="#0432FF" transform="matrix(1.00, 0.00, -0.00, -1.00, 175.7, 504.0)"> </text><text xml:space="preserve" font-family="HelveticaNeue" font-size="15.4" fill="#747373" transform="matrix(1.00, 0.00, -0.00, -1.00, 193.0, 469.8)">•</text><text xml:space="preserve" font-family="HelveticaNeue-Light" font-size="20.5" fill="#747373" transform="matrix(1.00, 0.00, -0.00, -1.00, 214.0, 468.0)">h</text><text xml:space="preserve" font-family="HelveticaNeue-Light" font-size="20.5" fill="#747373" transform="matrix(1.00, 0.00, -0.00, -1.00, 225.0, 468.0)">d</text><text xml:space="preserve" font-family="HelveticaNeue-Light" font-size="20.5" fill="#747373" transform="matrix(1.00, 0.00, -0.00, -1.00, 236.8, 468.0)">f</text><text xml:space="preserve" font-family="HelveticaNeue-Light" font-size="20.5" fill="#747373" transform="matrix(1.00, 0.00, -0.00, -1.00, 242.1, 468.0)">s</text><text xml:space="preserve" font-family="HelveticaNeue-Light" font-size="20.5" fill="#747373" transform="matrix(1.00, 0.00, -0.00, -1.00, 252.0, 468.0)"> </text><text xml:space="preserve" font-family="HelveticaNeue" font-size="15.4" fill="#747373" transform="matrix(1.00, 0.00, -0.00, -1.00, 193.0, 442.9)">•</text><text xml:space="preserve" font-family="HelveticaNeue-Light" font-size="20.5" fill="#747373" transform="matrix(1.00, 0.00, -0.00, -1.00, 214.0, 441.0)">c</text><text xml:space="preserve" font-family="HelveticaNeue-Light" font-size="20.5" fill="#747373" transform="matrix(1.00, 0.00, -0.00, -1.00, 224.6, 441.0)">a</text><text xml:space="preserve" font-family="HelveticaNeue-Light" font-size="20.5" fill="#747373" transform="matrix(1.00, 0.00, -0.00, -1.00, 235.3, 441.0)">s</text><text xml:space="preserve" font-family="HelveticaNeue-Light" font-size="20.5" fill="#747373" transform="matrix(1.00, 0.00, -0.00, -1.00, 245.2, 441.0)">s</text><text xml:space="preserve" font-family="HelveticaNeue-Light" font-size="20.5" fill="#747373" transform="matrix(1.00, 0.00, -0.00, -1.00, 255.0, 441.0)">a</text><text xml:space="preserve" font-family="HelveticaNeue-Light" font-size="20.5" fill="#747373" transform="matrix(1.00, 0.00, -0.00, -1.00, 265.7, 441.0)">n</text><text xml:space="preserve" font-family="HelveticaNeue-Light" font-size="20.5" fill="#747373" transform="matrix(1.00, 0.00, -0.00, -1.00, 276.7, 441.0)">d</text><text xml:space="preserve" font-family="HelveticaNeue-Light" font-size="20.5" fill="#747373" transform="matrix(1.00, 0.00, -0.00, -1.00, 288.5, 441.0)">r</text><text xml:space="preserve" font-family="HelveticaNeue-Light" font-size="20.5" fill="#747373" transform="matrix(1.00, 0.00, -0.00, -1.00, 295.0, 441.0)">a</text><text xml:space="preserve" font-family="HelveticaNeue-Light" font-size="20.5" fill="#747373" transform="matrix(1.00, 0.00, -0.00, -1.00, 305.6, 441.0)"> </text><text xml:space="preserve" font-family="HelveticaNeue" font-size="15.4" fill="#0432FF" transform="matrix(1.00, 0.00, -0.00, -1.00, 49.0, 415.9)">•</text><text xml:space="preserve" font-family="HelveticaNeue-Light" font-size="20.5" fill="#0432FF" transform="matrix(1.00, 0.00, -0.00, -1.00, 70.0, 414.0)">S</text><text xml:space="preserve" font-family="HelveticaNeue-Light" font-size="20.5" fill="#0432FF" transform="matrix(1.00, 0.00, -0.00, -1.00, 82.9, 414.0)">t</text><text xml:space="preserve" font-family="HelveticaNeue-Light" font-size="20.5" fill="#0432FF" transform="matrix(1.00, 0.00, -0.00, -1.00, 89.0, 414.0)">r</text><text xml:space="preserve" font-family="HelveticaNeue-Light" font-size="20.5" fill="#0432FF" transform="matrix(1.00, 0.00, -0.00, -1.00, 95.1, 414.0)">e</text><text xml:space="preserve" font-family="HelveticaNeue-Light" font-size="20.5" fill="#0432FF" transform="matrix(1.00, 0.00, -0.00, -1.00, 105.7, 414.0)">a</text><text xml:space="preserve" font-family="HelveticaNeue-Light" font-size="20.5" fill="#0432FF" transform="matrix(1.00, 0.00, -0.00, -1.00, 116.4, 414.0)">m</text><text xml:space="preserve" font-family="HelveticaNeue-Light" font-size="20.5" fill="#0432FF" transform="matrix(1.00, 0.00, -0.00, -1.00, 133.5, 414.0)">i</text><text xml:space="preserve" font-family="HelveticaNeue-Light" font-size="20.5" fill="#0432FF" transform="matrix(1.00, 0.00, -0.00, -1.00, 137.3, 414.0)">n</text><text xml:space="preserve" font-family="HelveticaNeue-Light" font-size="20.5" fill="#0432FF" transform="matrix(1.00, 0.00, -0.00, -1.00, 148.3, 414.0)">g</text><text xml:space="preserve" font-family="HelveticaNeue-Light" font-size="20.5" fill="#0432FF" transform="matrix(1.00, 0.00, -0.00, -1.00, 159.7, 414.0)"> </text><text xml:space="preserve" font-family="HelveticaNeue-Light" font-size="20.5" fill="#0432FF" transform="matrix(1.00, 0.00, -0.00, -1.00, 165.4, 414.0)">A</text><text xml:space="preserve" font-family="HelveticaNeue-Light" font-size="20.5" fill="#0432FF" transform="matrix(1.00, 0.00, -0.00, -1.00, 178.3, 414.0)">n</text><text xml:space="preserve" font-family="HelveticaNeue-Light" font-size="20.5" fill="#0432FF" transform="matrix(1.00, 0.00, -0.00, -1.00, 189.4, 414.0)">a</text><text xml:space="preserve" font-family="HelveticaNeue-Light" font-size="20.5" fill="#0432FF" transform="matrix(1.00, 0.00, -0.00, -1.00, 200.0, 414.0)">l</text><text xml:space="preserve" font-family="HelveticaNeue-Light" font-size="20.5" fill="#0432FF" transform="matrix(1.00, 0.00, -0.00, -1.00, 203.8, 414.0)">y</text><text xml:space="preserve" font-family="HelveticaNeue-Light" font-size="20.5" fill="#0432FF" transform="matrix(1.00, 0.00, -0.00, -1.00, 213.3, 414.0)">t</text><text xml:space="preserve" font-family="HelveticaNeue-Light" font-size="20.5" fill="#0432FF" transform="matrix(1.00, 0.00, -0.00, -1.00, 219.4, 414.0)">i</text><text xml:space="preserve" font-family="HelveticaNeue-Light" font-size="20.5" fill="#0432FF" transform="matrix(1.00, 0.00, -0.00, -1.00, 223.2, 414.0)">c</text><text xml:space="preserve" font-family="HelveticaNeue-Light" font-size="20.5" fill="#0432FF" transform="matrix(1.00, 0.00, -0.00, -1.00, 233.8, 414.0)">s</text><text xml:space="preserve" font-family="HelveticaNeue-Light" font-size="20.5" fill="#0432FF" transform="matrix(1.00, 0.00, -0.00, -1.00, 243.7, 414.0)">:</text><text xml:space="preserve" font-family="HelveticaNeue-Light" font-size="20.5" fill="#0432FF" transform="matrix(1.00, 0.00, -0.00, -1.00, 249.4, 414.0)"> </text><text xml:space="preserve" font-family="HelveticaNeue-Light" font-size="20.5" fill="#0432FF" transform="matrix(1.00, 0.00, -0.00, -1.00, 255.1, 414.0)"> </text><text xml:space="preserve" font-family="HelveticaNeue" font-size="15.4" fill="#747373" transform="matrix(1.00, 0.00, -0.00, -1.00, 193.0, 379.2)">•</text><text xml:space="preserve" font-family="HelveticaNeue-Light" font-size="20.5" fill="#747373" transform="matrix(1.00, 0.00, -0.00, -1.00, 214.0, 377.0)">S</text><text xml:space="preserve" font-family="HelveticaNeue-Light" font-size="20.5" fill="#747373" transform="matrix(1.00, 0.00, -0.00, -1.00, 226.9, 377.0)">p</text><text xml:space="preserve" font-family="HelveticaNeue-Light" font-size="20.5" fill="#747373" transform="matrix(1.00, 0.00, -0.00, -1.00, 238.7, 377.0)">a</text><text xml:space="preserve" font-family="HelveticaNeue-Light" font-size="20.5" fill="#747373" transform="matrix(1.00, 0.00, -0.00, -1.00, 249.4, 377.0)">r</text><text xml:space="preserve" font-family="HelveticaNeue-Light" font-size="20.5" fill="#747373" transform="matrix(1.00, 0.00, -0.00, -1.00, 255.8, 377.0)">k</text><text xml:space="preserve" font-family="HelveticaNeue-Light" font-size="20.5" fill="#747373" transform="matrix(1.00, 0.00, -0.00, -1.00, 266.1, 377.0)"> </text><text xml:space="preserve" font-family="HelveticaNeue-Light" font-size="20.5" fill="#747373" transform="matrix(1.00, 0.00, -0.00, -1.00, 271.8, 377.0)">s</text><text xml:space="preserve" font-family="HelveticaNeue-Light" font-size="20.5" fill="#747373" transform="matrix(1.00, 0.00, -0.00, -1.00, 281.7, 377.0)">t</text><text xml:space="preserve" font-family="HelveticaNeue-Light" font-size="20.5" fill="#747373" transform="matrix(1.00, 0.00, -0.00, -1.00, 287.7, 377.0)">r</text><text xml:space="preserve" font-family="HelveticaNeue-Light" font-size="20.5" fill="#747373" transform="matrix(1.00, 0.00, -0.00, -1.00, 293.8, 377.0)">e</text><text xml:space="preserve" font-family="HelveticaNeue-Light" font-size="20.5" fill="#747373" transform="matrix(1.00, 0.00, -0.00, -1.00, 304.5, 377.0)">a</text><text xml:space="preserve" font-family="HelveticaNeue-Light" font-size="20.5" fill="#747373" transform="matrix(1.00, 0.00, -0.00, -1.00, 315.1, 377.0)">m</text><text xml:space="preserve" font-family="HelveticaNeue-Light" font-size="20.5" fill="#747373" transform="matrix(1.00, 0.00, -0.00, -1.00, 332.2, 377.0)">i</text><text xml:space="preserve" font-family="HelveticaNeue-Light" font-size="20.5" fill="#747373" transform="matrix(1.00, 0.00, -0.00, -1.00, 336.0, 377.0)">n</text><text xml:space="preserve" font-family="HelveticaNeue-Light" font-size="20.5" fill="#747373" transform="matrix(1.00, 0.00, -0.00, -1.00, 347.0, 377.0)">g</text><text xml:space="preserve" font-family="HelveticaNeue-Light" font-size="20.5" fill="#747373" transform="matrix(1.00, 0.00, -0.00, -1.00, 358.4, 377.0)"> </text><text xml:space="preserve" font-family="HelveticaNeue" font-size="15.4" fill="#747373" transform="matrix(1.00, 0.00, -0.00, -1.00, 193.0, 352.2)">•</text><text xml:space="preserve" font-family="HelveticaNeue-Light" font-size="20.5" fill="#747373" transform="matrix(1.00, 0.00, -0.00, -1.00, 214.0, 350.0)">ﬂ</text><text xml:space="preserve" font-family="HelveticaNeue-Light" font-size="20.5" fill="#747373" transform="matrix(1.00, 0.00, -0.00, -1.00, 223.1, 350.0)">i</text><text xml:space="preserve" font-family="HelveticaNeue-Light" font-size="20.5" fill="#747373" transform="matrix(1.00, 0.00, -0.00, -1.00, 226.9, 350.0)">n</text><text xml:space="preserve" font-family="HelveticaNeue-Light" font-size="20.5" fill="#747373" transform="matrix(1.00, 0.00, -0.00, -1.00, 237.9, 350.0)">k</text><text xml:space="preserve" font-family="HelveticaNeue-Light" font-size="20.5" fill="#747373" transform="matrix(1.00, 0.00, -0.00, -1.00, 248.2, 350.0)"> </text><text xml:space="preserve" font-family="HelveticaNeue" font-size="15.4" fill="#747373" transform="matrix(1.00, 0.00, -0.00, -1.00, 193.0, 325.2)">•</text><text xml:space="preserve" font-family="HelveticaNeue-Light" font-size="20.5" fill="#747373" transform="matrix(1.00, 0.00, -0.00, -1.00, 214.0, 323.0)">s</text><text xml:space="preserve" font-family="HelveticaNeue-Light" font-size="20.5" fill="#747373" transform="matrix(1.00, 0.00, -0.00, -1.00, 223.9, 323.0)">t</text><text xml:space="preserve" font-family="HelveticaNeue-Light" font-size="20.5" fill="#747373" transform="matrix(1.00, 0.00, -0.00, -1.00, 229.9, 323.0)">o</text><text xml:space="preserve" font-family="HelveticaNeue-Light" font-size="20.5" fill="#747373" transform="matrix(1.00, 0.00, -0.00, -1.00, 241.4, 323.0)">r</text><text xml:space="preserve" font-family="HelveticaNeue-Light" font-size="20.5" fill="#747373" transform="matrix(1.00, 0.00, -0.00, -1.00, 247.8, 323.0)">m</text><text xml:space="preserve" font-family="HelveticaNeue-Light" font-size="20.5" fill="#747373" transform="matrix(1.00, 0.00, -0.00, -1.00, 264.9, 323.0)"> </text><text xml:space="preserve" font-family="HelveticaNeue" font-size="15.4" fill="#747373" transform="matrix(1.00, 0.00, -0.00, -1.00, 193.0, 298.2)">•</text><text xml:space="preserve" font-family="HelveticaNeue-Light" font-size="20.5" fill="#747373" transform="matrix(1.00, 0.00, -0.00, -1.00, 214.0, 296.0)">d</text><text xml:space="preserve" font-family="HelveticaNeue-Light" font-size="20.5" fill="#747373" transform="matrix(1.00, 0.00, -0.00, -1.00, 225.8, 296.0)">r</text><text xml:space="preserve" font-family="HelveticaNeue-Light" font-size="20.5" fill="#747373" transform="matrix(1.00, 0.00, -0.00, -1.00, 232.2, 296.0)">u</text><text xml:space="preserve" font-family="HelveticaNeue-Light" font-size="20.5" fill="#747373" transform="matrix(1.00, 0.00, -0.00, -1.00, 243.3, 296.0)">i</text><text xml:space="preserve" font-family="HelveticaNeue-Light" font-size="20.5" fill="#747373" transform="matrix(1.00, 0.00, -0.00, -1.00, 247.1, 296.0)">d</text><text xml:space="preserve" font-family="HelveticaNeue-Light" font-size="20.5" fill="#747373" transform="matrix(1.00, 0.00, -0.00, -1.00, 258.8, 296.0)"> </text><text xml:space="preserve" font-family="HelveticaNeue" font-size="15.4" fill="#0432FF" transform="matrix(1.00, 0.00, -0.00, -1.00, 49.0, 271.2)">•</text><text xml:space="preserve" font-family="HelveticaNeue-Light" font-size="20.5" fill="#0432FF" transform="matrix(1.00, 0.00, -0.00, -1.00, 70.0, 269.0)">B</text><text xml:space="preserve" font-family="HelveticaNeue-Light" font-size="20.5" fill="#0432FF" transform="matrix(1.00, 0.00, -0.00, -1.00, 83.7, 269.0)">a</text><text xml:space="preserve" font-family="HelveticaNeue-Light" font-size="20.5" fill="#0432FF" transform="matrix(1.00, 0.00, -0.00, -1.00, 94.3, 269.0)">t</text><text xml:space="preserve" font-family="HelveticaNeue-Light" font-size="20.5" fill="#0432FF" transform="matrix(1.00, 0.00, -0.00, -1.00, 100.4, 269.0)">c</text><text xml:space="preserve" font-family="HelveticaNeue-Light" font-size="20.5" fill="#0432FF" transform="matrix(1.00, 0.00, -0.00, -1.00, 111.1, 269.0)">h</text><text xml:space="preserve" font-family="HelveticaNeue-Light" font-size="20.5" fill="#0432FF" transform="matrix(1.00, 0.00, -0.00, -1.00, 122.1, 269.0)"> </text><text xml:space="preserve" font-family="HelveticaNeue-Light" font-size="20.5" fill="#0432FF" transform="matrix(1.00, 0.00, -0.00, -1.00, 127.8, 269.0)">P</text><text xml:space="preserve" font-family="HelveticaNeue-Light" font-size="20.5" fill="#0432FF" transform="matrix(1.00, 0.00, -0.00, -1.00, 140.7, 269.0)">r</text><text xml:space="preserve" font-family="HelveticaNeue-Light" font-size="20.5" fill="#0432FF" transform="matrix(1.00, 0.00, -0.00, -1.00, 146.8, 269.0)">o</text><text xml:space="preserve" font-family="HelveticaNeue-Light" font-size="20.5" fill="#0432FF" transform="matrix(1.00, 0.00, -0.00, -1.00, 158.2, 269.0)">c</text><text xml:space="preserve" font-family="HelveticaNeue-Light" font-size="20.5" fill="#0432FF" transform="matrix(1.00, 0.00, -0.00, -1.00, 168.9, 269.0)">e</text><text xml:space="preserve" font-family="HelveticaNeue-Light" font-size="20.5" fill="#0432FF" transform="matrix(1.00, 0.00, -0.00, -1.00, 179.5, 269.0)">s</text><text xml:space="preserve" font-family="HelveticaNeue-Light" font-size="20.5" fill="#0432FF" transform="matrix(1.00, 0.00, -0.00, -1.00, 189.4, 269.0)">s</text><text xml:space="preserve" font-family="HelveticaNeue-Light" font-size="20.5" fill="#0432FF" transform="matrix(1.00, 0.00, -0.00, -1.00, 199.3, 269.0)">i</text><text xml:space="preserve" font-family="HelveticaNeue-Light" font-size="20.5" fill="#0432FF" transform="matrix(1.00, 0.00, -0.00, -1.00, 203.1, 269.0)">n</text><text xml:space="preserve" font-family="HelveticaNeue-Light" font-size="20.5" fill="#0432FF" transform="matrix(1.00, 0.00, -0.00, -1.00, 214.1, 269.0)">g</text><text xml:space="preserve" font-family="HelveticaNeue-Light" font-size="20.5" fill="#0432FF" transform="matrix(1.00, 0.00, -0.00, -1.00, 225.5, 269.0)">:</text><text xml:space="preserve" font-family="HelveticaNeue-Light" font-size="20.5" fill="#0432FF" transform="matrix(1.00, 0.00, -0.00, -1.00, 231.2, 269.0)"> </text><text xml:space="preserve" font-family="HelveticaNeue-Light" font-size="20.5" fill="#0432FF" transform="matrix(1.00, 0.00, -0.00, -1.00, 236.9, 269.0)"> </text><text xml:space="preserve" font-family="HelveticaNeue" font-size="15.4" fill="#747373" transform="matrix(1.00, 0.00, -0.00, -1.00, 193.0, 234.5)">•</text><text xml:space="preserve" font-family="HelveticaNeue-Light" font-size="20.5" fill="#747373" transform="matrix(1.00, 0.00, -0.00, -1.00, 214.0, 232.0)">s</text><text xml:space="preserve" font-family="HelveticaNeue-Light" font-size="20.5" fill="#747373" transform="matrix(1.00, 0.00, -0.00, -1.00, 223.9, 232.0)">p</text><text xml:space="preserve" font-family="HelveticaNeue-Light" font-size="20.5" fill="#747373" transform="matrix(1.00, 0.00, -0.00, -1.00, 235.6, 232.0)">a</text><text xml:space="preserve" font-family="HelveticaNeue-Light" font-size="20.5" fill="#747373" transform="matrix(1.00, 0.00, -0.00, -1.00, 246.3, 232.0)">r</text><text xml:space="preserve" font-family="HelveticaNeue-Light" font-size="20.5" fill="#747373" transform="matrix(1.00, 0.00, -0.00, -1.00, 252.8, 232.0)">k</text><text xml:space="preserve" font-family="HelveticaNeue-Light" font-size="20.5" fill="#747373" transform="matrix(1.00, 0.00, -0.00, -1.00, 263.0, 232.0)"> </text><text xml:space="preserve" font-family="HelveticaNeue" font-size="15.4" fill="#747373" transform="matrix(1.00, 0.00, -0.00, -1.00, 193.0, 207.5)">•</text><text xml:space="preserve" font-family="HelveticaNeue-Light" font-size="20.5" fill="#747373" transform="matrix(1.00, 0.00, -0.00, -1.00, 214.0, 205.0)">ﬂ</text><text xml:space="preserve" font-family="HelveticaNeue-Light" font-size="20.5" fill="#747373" transform="matrix(1.00, 0.00, -0.00, -1.00, 223.1, 205.0)">i</text><text xml:space="preserve" font-family="HelveticaNeue-Light" font-size="20.5" fill="#747373" transform="matrix(1.00, 0.00, -0.00, -1.00, 226.9, 205.0)">n</text><text xml:space="preserve" font-family="HelveticaNeue-Light" font-size="20.5" fill="#747373" transform="matrix(1.00, 0.00, -0.00, -1.00, 237.9, 205.0)">k</text><text xml:space="preserve" font-family="HelveticaNeue-Light" font-size="20.5" fill="#747373" transform="matrix(1.00, 0.00, -0.00, -1.00, 248.2, 205.0)"> </text><text xml:space="preserve" font-family="HelveticaNeue" font-size="15.4" fill="#0432FF" transform="matrix(1.00, 0.00, -0.00, -1.00, 49.0, 180.6)">•</text><text xml:space="preserve" font-family="HelveticaNeue-Light" font-size="20.5" fill="#0432FF" transform="matrix(1.00, 0.00, -0.00, -1.00, 70.0, 178.0)">M</text><text xml:space="preserve" font-family="HelveticaNeue-Light" font-size="20.5" fill="#0432FF" transform="matrix(1.00, 0.00, -0.00, -1.00, 86.8, 178.0)">a</text><text xml:space="preserve" font-family="HelveticaNeue-Light" font-size="20.5" fill="#0432FF" transform="matrix(1.00, 0.00, -0.00, -1.00, 97.5, 178.0)">c</text><text xml:space="preserve" font-family="HelveticaNeue-Light" font-size="20.5" fill="#0432FF" transform="matrix(1.00, 0.00, -0.00, -1.00, 108.1, 178.0)">h</text><text xml:space="preserve" font-family="HelveticaNeue-Light" font-size="20.5" fill="#0432FF" transform="matrix(1.00, 0.00, -0.00, -1.00, 119.2, 178.0)">i</text><text xml:space="preserve" font-family="HelveticaNeue-Light" font-size="20.5" fill="#0432FF" transform="matrix(1.00, 0.00, -0.00, -1.00, 123.0, 178.0)">n</text><text xml:space="preserve" font-family="HelveticaNeue-Light" font-size="20.5" fill="#0432FF" transform="matrix(1.00, 0.00, -0.00, -1.00, 134.0, 178.0)">e</text><text xml:space="preserve" font-family="HelveticaNeue-Light" font-size="20.5" fill="#0432FF" transform="matrix(1.00, 0.00, -0.00, -1.00, 144.6, 178.0)"> </text><text xml:space="preserve" font-family="HelveticaNeue-Light" font-size="20.5" fill="#0432FF" transform="matrix(1.00, 0.00, -0.00, -1.00, 150.3, 178.0)">L</text><text xml:space="preserve" font-family="HelveticaNeue-Light" font-size="20.5" fill="#0432FF" transform="matrix(1.00, 0.00, -0.00, -1.00, 161.4, 178.0)">e</text><text xml:space="preserve" font-family="HelveticaNeue-Light" font-size="20.5" fill="#0432FF" transform="matrix(1.00, 0.00, -0.00, -1.00, 172.0, 178.0)">a</text><text xml:space="preserve" font-family="HelveticaNeue-Light" font-size="20.5" fill="#0432FF" transform="matrix(1.00, 0.00, -0.00, -1.00, 182.7, 178.0)">r</text><text xml:space="preserve" font-family="HelveticaNeue-Light" font-size="20.5" fill="#0432FF" transform="matrix(1.00, 0.00, -0.00, -1.00, 189.5, 178.0)">n</text><text xml:space="preserve" font-family="HelveticaNeue-Light" font-size="20.5" fill="#0432FF" transform="matrix(1.00, 0.00, -0.00, -1.00, 200.5, 178.0)">i</text><text xml:space="preserve" font-family="HelveticaNeue-Light" font-size="20.5" fill="#0432FF" transform="matrix(1.00, 0.00, -0.00, -1.00, 204.3, 178.0)">n</text><text xml:space="preserve" font-family="HelveticaNeue-Light" font-size="20.5" fill="#0432FF" transform="matrix(1.00, 0.00, -0.00, -1.00, 215.3, 178.0)">g</text><text xml:space="preserve" font-family="HelveticaNeue-Light" font-size="20.5" fill="#0432FF" transform="matrix(1.00, 0.00, -0.00, -1.00, 226.7, 178.0)">:</text><text xml:space="preserve" font-family="HelveticaNeue-Light" font-size="20.5" fill="#0432FF" transform="matrix(1.00, 0.00, -0.00, -1.00, 232.4, 178.0)"> </text><text xml:space="preserve" font-family="HelveticaNeue-Light" font-size="20.5" fill="#0432FF" transform="matrix(1.00, 0.00, -0.00, -1.00, 238.1, 178.0)"> </text><text xml:space="preserve" font-family="HelveticaNeue" font-size="15.4" fill="#747373" transform="matrix(1.00, 0.00, -0.00, -1.00, 193.0, 143.8)">•</text><text xml:space="preserve" font-family="HelveticaNeue-Light" font-size="20.5" fill="#747373" transform="matrix(1.00, 0.00, -0.00, -1.00, 214.0, 141.0)">s</text><text xml:space="preserve" font-family="HelveticaNeue-Light" font-size="20.5" fill="#747373" transform="matrix(1.00, 0.00, -0.00, -1.00, 223.9, 141.0)">p</text><text xml:space="preserve" font-family="HelveticaNeue-Light" font-size="20.5" fill="#747373" transform="matrix(1.00, 0.00, -0.00, -1.00, 235.6, 141.0)">a</text><text xml:space="preserve" font-family="HelveticaNeue-Light" font-size="20.5" fill="#747373" transform="matrix(1.00, 0.00, -0.00, -1.00, 246.3, 141.0)">r</text><text xml:space="preserve" font-family="HelveticaNeue-Light" font-size="20.5" fill="#747373" transform="matrix(1.00, 0.00, -0.00, -1.00, 252.8, 141.0)">k</text><text xml:space="preserve" font-family="HelveticaNeue-Light" font-size="20.5" fill="#747373" transform="matrix(1.00, 0.00, -0.00, -1.00, 263.0, 141.0)">m</text><text xml:space="preserve" font-family="HelveticaNeue-Light" font-size="20.5" fill="#747373" transform="matrix(1.00, 0.00, -0.00, -1.00, 280.1, 141.0)">l</text><text xml:space="preserve" font-family="HelveticaNeue-Light" font-size="20.5" fill="#747373" transform="matrix(1.00, 0.00, -0.00, -1.00, 283.9, 141.0)">i</text><text xml:space="preserve" font-family="HelveticaNeue-Light" font-size="20.5" fill="#747373" transform="matrix(1.00, 0.00, -0.00, -1.00, 287.7, 141.0)">b</text><text xml:space="preserve" font-family="HelveticaNeue-Light" font-size="20.5" fill="#747373" transform="matrix(1.00, 0.00, -0.00, -1.00, 299.5, 141.0)"> </text><text xml:space="preserve" font-family="HelveticaNeue" font-size="15.4" fill="#747373" transform="matrix(1.00, 0.00, -0.00, -1.00, 193.0, 116.8)">•</text><text xml:space="preserve" font-family="HelveticaNeue-Light" font-size="20.5" fill="#747373" transform="matrix(1.00, 0.00, -0.00, -1.00, 214.0, 115.0)">ﬂ</text><text xml:space="preserve" font-family="HelveticaNeue-Light" font-size="20.5" fill="#747373" transform="matrix(1.00, 0.00, -0.00, -1.00, 223.1, 115.0)">i</text><text xml:space="preserve" font-family="HelveticaNeue-Light" font-size="20.5" fill="#747373" transform="matrix(1.00, 0.00, -0.00, -1.00, 226.9, 115.0)">n</text><text xml:space="preserve" font-family="HelveticaNeue-Light" font-size="20.5" fill="#747373" transform="matrix(1.00, 0.00, -0.00, -1.00, 237.9, 115.0)">k</text><text xml:space="preserve" font-family="HelveticaNeue-Light" font-size="20.5" fill="#747373" transform="matrix(1.00, 0.00, -0.00, -1.00, 248.2, 115.0)"> </text><text xml:space="preserve" font-family="HelveticaNeue-Light" font-size="20.5" fill="#747373" transform="matrix(1.00, 0.00, -0.00, -1.00, 253.9, 115.0)">l</text><text xml:space="preserve" font-family="HelveticaNeue-Light" font-size="20.5" fill="#747373" transform="matrix(1.00, 0.00, -0.00, -1.00, 257.7, 115.0)">i</text><text xml:space="preserve" font-family="HelveticaNeue-Light" font-size="20.5" fill="#747373" transform="matrix(1.00, 0.00, -0.00, -1.00, 261.5, 115.0)">b</text><text xml:space="preserve" font-family="HelveticaNeue-Light" font-size="20.5" fill="#747373" transform="matrix(1.00, 0.00, -0.00, -1.00, 273.3, 115.0)"> </text><text xml:space="preserve" font-family="HelveticaNeue" font-size="15.4" fill="#0432FF" transform="matrix(1.00, 0.00, -0.00, -1.00, 49.0, 89.9)">•</text><text xml:space="preserve" font-family="HelveticaNeue-Light" font-size="20.5" fill="#0432FF" transform="matrix(1.00, 0.00, -0.00, -1.00, 70.0, 88.0)">S</text><text xml:space="preserve" font-family="HelveticaNeue-Light" font-size="20.5" fill="#0432FF" transform="matrix(1.00, 0.00, -0.00, -1.00, 82.9, 88.0)">c</text><text xml:space="preserve" font-family="HelveticaNeue-Light" font-size="20.5" fill="#0432FF" transform="matrix(1.00, 0.00, -0.00, -1.00, 93.6, 88.0)">h</text><text xml:space="preserve" font-family="HelveticaNeue-Light" font-size="20.5" fill="#0432FF" transform="matrix(1.00, 0.00, -0.00, -1.00, 104.6, 88.0)">e</text><text xml:space="preserve" font-family="HelveticaNeue-Light" font-size="20.5" fill="#0432FF" transform="matrix(1.00, 0.00, -0.00, -1.00, 115.2, 88.0)">d</text><text xml:space="preserve" font-family="HelveticaNeue-Light" font-size="20.5" fill="#0432FF" transform="matrix(1.00, 0.00, -0.00, -1.00, 127.0, 88.0)">u</text><text xml:space="preserve" font-family="HelveticaNeue-Light" font-size="20.5" fill="#0432FF" transform="matrix(1.00, 0.00, -0.00, -1.00, 138.0, 88.0)">l</text><text xml:space="preserve" font-family="HelveticaNeue-Light" font-size="20.5" fill="#0432FF" transform="matrix(1.00, 0.00, -0.00, -1.00, 141.8, 88.0)">i</text><text xml:space="preserve" font-family="HelveticaNeue-Light" font-size="20.5" fill="#0432FF" transform="matrix(1.00, 0.00, -0.00, -1.00, 145.6, 88.0)">n</text><text xml:space="preserve" font-family="HelveticaNeue-Light" font-size="20.5" fill="#0432FF" transform="matrix(1.00, 0.00, -0.00, -1.00, 156.7, 88.0)">g</text><text xml:space="preserve" font-family="HelveticaNeue-Light" font-size="20.5" fill="#0432FF" transform="matrix(1.00, 0.00, -0.00, -1.00, 168.1, 88.0)">:</text><text xml:space="preserve" font-family="HelveticaNeue-Light" font-size="20.5" fill="#0432FF" transform="matrix(1.00, 0.00, -0.00, -1.00, 173.8, 88.0)"> </text><text xml:space="preserve" font-family="HelveticaNeue-Light" font-size="20.5" fill="#0432FF" transform="matrix(1.00, 0.00, -0.00, -1.00, 179.5, 88.0)"> </text><text xml:space="preserve" font-family="HelveticaNeue" font-size="15.4" fill="#747373" transform="matrix(1.00, 0.00, -0.00, -1.00, 193.0, 53.1)">•</text><text xml:space="preserve" font-family="HelveticaNeue-Light" font-size="20.5" fill="#747373" transform="matrix(1.00, 0.00, -0.00, -1.00, 214.0, 51.0)">Y</text><text xml:space="preserve" font-family="HelveticaNeue-Light" font-size="20.5" fill="#747373" transform="matrix(1.00, 0.00, -0.00, -1.00, 225.0, 51.0)">A</text><text xml:space="preserve" font-family="HelveticaNeue-Light" font-size="20.5" fill="#747373" transform="matrix(1.00, 0.00, -0.00, -1.00, 237.9, 51.0)">R</text><text xml:space="preserve" font-family="HelveticaNeue-Light" font-size="20.5" fill="#747373" transform="matrix(1.00, 0.00, -0.00, -1.00, 251.6, 51.0)">N</text><text xml:space="preserve" font-family="HelveticaNeue-Light" font-size="20.5" fill="#747373" transform="matrix(1.00, 0.00, -0.00, -1.00, 266.1, 51.0)"> </text><text xml:space="preserve" font-family="HelveticaNeue" font-size="15.4" fill="#747373" transform="matrix(1.00, 0.00, -0.00, -1.00, 193.0, 26.2)">•</text><text xml:space="preserve" font-family="HelveticaNeue-Light" font-size="20.5" fill="#747373" transform="matrix(1.00, 0.00, -0.00, -1.00, 214.0, 24.0)">A</text><text xml:space="preserve" font-family="HelveticaNeue-Light" font-size="20.5" fill="#747373" transform="matrix(1.00, 0.00, -0.00, -1.00, 226.9, 24.0)">i</text><text xml:space="preserve" font-family="HelveticaNeue-Light" font-size="20.5" fill="#747373" transform="matrix(1.00, 0.00, -0.00, -1.00, 230.7, 24.0)">r</text><text xml:space="preserve" font-family="HelveticaNeue-Light" font-size="20.5" fill="#747373" transform="matrix(1.00, 0.00, -0.00, -1.00, 237.2, 24.0)">ﬂ</text><text xml:space="preserve" font-family="HelveticaNeue-Light" font-size="20.5" fill="#747373" transform="matrix(1.00, 0.00, -0.00, -1.00, 246.3, 24.0)">o</text><text xml:space="preserve" font-family="HelveticaNeue-Light" font-size="20.5" fill="#747373" transform="matrix(1.00, 0.00, -0.00, -1.00, 257.7, 24.0)">w</text></g></svg>